<svg width="14" height="14" viewBox="0 0 14 14" fill="none" xmlns="http://www.w3.org/2000/svg">
<path d="M8.00775 2.01041L9.0343 4.08048C9.17429 4.36864 9.54758 4.64504 9.86254 4.69797L11.7232 5.00966C12.913 5.20961 13.193 6.07998 12.3356 6.93859L10.8891 8.39705C10.6441 8.64405 10.51 9.1204 10.5858 9.46149L10.9999 11.2669C11.3265 12.696 10.5741 13.2488 9.3201 12.5019L7.57613 11.461C7.26116 11.2728 6.74205 11.2728 6.42126 11.461L4.67728 12.5019C3.42909 13.2488 2.67084 12.6901 2.99747 11.2669L3.41159 9.46149C3.48741 9.1204 3.35326 8.64405 3.10829 8.39705L1.66178 6.93859C0.810209 6.07998 1.08435 5.20961 2.27421 5.00966L4.13484 4.69797C4.44397 4.64504 4.81727 4.36864 4.95725 4.08048L5.9838 2.01041C6.54374 0.887156 7.45364 0.887156 8.00775 2.01041Z" stroke="black" stroke-linecap="round" stroke-linejoin="round"/>
</svg>
