<svg width="25" height="24" viewBox="0 0 25 24" fill="none" xmlns="http://www.w3.org/2000/svg">
<path d="M5.33867 7.57893L10.6097 3.72726C11.8219 2.72444 13.8423 2.7913 15.0995 3.72726L20.2179 7.58848C21.1068 8.24747 21.8342 9.7248 21.8342 10.8804V17.8363C21.8342 20.0425 20.137 21.8571 18.0538 21.8571H15.5689C15.0166 21.8571 14.5689 21.4094 14.5689 20.8571V16C14.5689 15.4477 14.1212 15 13.5689 15H12.1403C11.588 15 11.1403 15.4477 11.1403 16V20.8571C11.1403 21.4094 10.6926 21.8571 10.1403 21.8571H7.65541C5.57214 21.8571 3.875 20.0425 3.875 17.8268V10.7497C3.875 9.67052 4.53051 8.24747 5.33867 7.57893Z" fill="#FFEC00" stroke="black" stroke-linecap="round" stroke-linejoin="round"/>
</svg>
