<svg width="27" height="28" viewBox="0 0 27 28" fill="none" xmlns="http://www.w3.org/2000/svg">
<path fill-rule="evenodd" clip-rule="evenodd" d="M24.8408 25.1014C24.5051 25.53 23.981 25.7856 23.4388 25.7856H3.97036C3.42818 25.7856 2.90406 25.53 2.56842 25.1014C2.25214 24.6986 2.1437 24.212 2.26118 23.7304C3.56114 18.4583 8.26657 14.7753 13.7052 14.7753C19.1426 14.7753 23.848 18.4583 25.148 23.7304C25.2655 24.212 25.157 24.6986 24.8408 25.1014ZM8.19943 7.72165C8.19943 4.68668 10.669 2.21585 13.7052 2.21585C16.7402 2.21585 19.2097 4.68668 19.2097 7.72165C19.2097 10.7579 16.7402 13.2262 13.7052 13.2262C10.669 13.2262 8.19943 10.7579 8.19943 7.72165ZM26.6519 23.3599C25.4849 18.6248 21.891 15.0244 17.3831 13.7387C19.406 12.4968 20.7589 10.2648 20.7589 7.72166C20.7589 3.8321 17.5948 0.666748 13.7052 0.666748C9.81439 0.666748 6.65033 3.8321 6.65033 7.72166C6.65033 10.2648 8.00322 12.4968 10.0261 13.7387C5.51818 15.0244 1.92424 18.6248 0.757246 23.3599C0.52617 24.2984 0.741755 25.2821 1.34978 26.0554C1.98492 26.8687 2.94149 27.3334 3.97036 27.3334H23.4388C24.4677 27.3334 25.4243 26.8687 26.0594 26.0554C26.6674 25.2821 26.883 24.2984 26.6519 23.3599Z" fill="#7B7B7B"/>
</svg>
