<?xml version="1.0" encoding="UTF-8"?>
<svg width="28px" height="28px" viewBox="0 0 28 28" version="1.1" xmlns="http://www.w3.org/2000/svg" xmlns:xlink="http://www.w3.org/1999/xlink">
    <title>Done</title>
    <g id="Page-1" stroke="none" stroke-width="1" fill="none" fill-rule="evenodd">
        <g id="Filter-1" transform="translate(-26.000000, -354.000000)">
            <g id="Stacked-Group-Copy" transform="translate(12.000000, 336.000000)">
                <g id="Group-3-Copy-2" transform="translate(11.487179, 15.772086)">
                    <g id="ic_time" transform="translate(0.512821, 0.227914)">
                        <rect id="Rectangle" x="0" y="0" width="32" height="32"></rect>
                        <path d="M20.3509434,19.2850606 C20.645283,19.5781562 20.645283,20.0574241 20.3509434,20.3517776 C20.2037736,20.4989544 20.0100629,20.5719138 19.8176101,20.5719138 C19.6251572,20.5719138 19.4327044,20.4989544 19.2842767,20.3517776 L15.4666667,16.5327295 C15.3245283,16.3918424 15.245283,16.2006384 15.245283,16.000629 L15.245283,7.42160794 C15.245283,7.0052361 15.5836478,6.66811328 16,6.66811328 C16.4163522,6.66811328 16.754717,7.0052361 16.754717,7.42160794 L16.754717,15.6874066 L20.3509434,19.2850606 Z M16,27.8250861 C9.47924528,27.8250861 4.17610063,22.5204334 4.17610063,16.000629 C4.17610063,9.47956665 9.47924528,4.17491391 16,4.17491391 C22.5207547,4.17491391 27.8238994,9.47956665 27.8238994,16.000629 C27.8238994,22.5204334 22.5207547,27.8250861 16,27.8250861 L16,27.8250861 Z M16,2.66666667 C8.64779874,2.66666667 2.66666667,8.64808088 2.66666667,16.000629 C2.66666667,23.3519191 8.64779874,29.3333333 16,29.3333333 C23.3522013,29.3333333 29.3333333,23.3519191 29.3333333,16.000629 C29.3333333,8.64808088 23.3522013,2.66666667 16,2.66666667 L16,2.66666667 Z" id="Time" fill="#1A1A1A"></path>
                    </g>
                </g>
            </g>
        </g>
    </g>
</svg>