<?xml version="1.0" encoding="UTF-8"?>
<svg width="12px" height="12px" viewBox="0 0 12 12" version="1.1" xmlns="http://www.w3.org/2000/svg" xmlns:xlink="http://www.w3.org/1999/xlink">
    <title>ic_myorders_canceled</title>
    <g id="Page-1" stroke="none" stroke-width="1" fill="none" fill-rule="evenodd">
        <g id="Profile--&gt;-Order-history" transform="translate(-56.000000, -340.000000)">
            <g id="Group-3" transform="translate(12.000000, 168.000000)">
                <g id="Suggestion_1-Copy-6" transform="translate(0.000000, 128.000000)">
                    <g id="ic_myorders_canceled" transform="translate(44.000000, 44.000000)">
                        <rect id="Circle" fill="#F63F45" x="0" y="0" width="12" height="12" rx="6"></rect>
                        <path d="M7.86481823,4.78786213 L6.65283395,5.99997273 L7.86481823,7.21202591 C8.04509491,7.39237149 8.04509491,7.6845072 7.86481823,7.86485278 C7.77474305,7.95492796 7.65664856,8 7.53861149,8 C7.42037921,8 7.30227324,7.95499686 7.21226696,7.86485278 L6.00001856,6.6526618 L4.78786203,7.8648413 C4.69779833,7.95491648 4.57969236,8 4.46155194,8 C4.34344597,8 4.22542039,7.95498538 4.13527631,7.8648413 C3.95499963,7.6845761 3.95499963,7.3924289 4.13527631,7.21201443 L5.34722614,5.99996124 L4.13520741,4.78786213 C3.95493073,4.60758545 3.95493073,4.31538083 4.13520741,4.13510416 C4.31544963,3.95496528 4.607482,3.95496528 4.78779313,4.13510416 L5.9999999,5.34721476 L7.21212916,4.13510416 C7.39247474,3.95496528 7.68454155,3.95496528 7.86474933,4.13510416 C8.04509491,4.31538083 8.04509491,4.60758545 7.86481823,4.78786213 Z" id="Cross" fill="#FFFFFF" fill-rule="nonzero"></path>
                    </g>
                </g>
            </g>
        </g>
    </g>
</svg>