<svg width="118" height="131" viewBox="0 0 118 131" fill="none" xmlns="http://www.w3.org/2000/svg">
<path d="M111.34 44.1741C111.34 44.1741 93.5695 59.1524 112.49 92.6151C129.294 122.333 89.1392 134.058 72.1053 130.242C50.0394 125.297 38.1579 96.5333 20.9069 105.135C3.65603 113.737 -11.9209 72.4734 13.2303 58.0426C44.5176 40.0912 25.1327 28.7432 28.3084 15.0993C30.5874 5.30696 59.2286 -9.22076 73.8955 8.50504C86.2374 23.421 92.6662 18.349 98.5689 16.5418C107.083 13.9352 125.035 29.01 111.34 44.1741Z" fill="#E8E8E8" fill-opacity="0.4"/>
<path d="M93.3652 22.2055L55.0213 15.9223C52.209 15.4615 49.5556 17.3677 49.0948 20.18L35.8322 101.117C35.3713 103.929 37.2776 106.582 40.0898 107.043L78.4337 113.326C81.246 113.787 83.8994 111.881 84.3602 109.069L97.6229 28.132C98.0837 25.3197 96.1775 22.6663 93.3652 22.2055Z" fill="#A6A6A6"/>
<path d="M92.1041 24.486L55.488 18.486C53.6131 18.1787 51.8442 19.4496 51.537 21.3244L38.5121 100.811C38.2049 102.686 39.4757 104.454 41.3505 104.762L77.9666 110.762C79.8415 111.069 81.6104 109.798 81.9176 107.923L94.9425 28.437C95.2498 26.5622 93.9789 24.7932 92.1041 24.486Z" fill="#D3D3D3"/>
<path d="M113.926 15.8899C111.141 14.7261 109.172 15.8425 108.706 16.9567C108.37 17.7615 108.895 18.4173 109.453 18.6501C110.567 19.1155 110.777 17.3371 112.881 18.2163C113.913 18.6473 114.548 19.4461 114.152 20.3953C113.686 21.5096 112.263 21.6666 111.341 21.9598C110.527 22.2257 109.39 22.7442 108.649 24.5187C108.2 25.5917 108.36 26.0219 109.206 26.3753C110.216 26.7977 110.612 26.4299 110.776 26.0379C111.225 24.9648 111.504 24.3544 113.009 23.9413C113.747 23.7407 116.087 23.0702 116.898 21.1306C117.708 19.191 116.567 16.9932 113.926 15.8899Z" fill="#A6A6A6"/>
<path d="M108.631 27.8073C108.211 27.6373 107.74 27.6399 107.322 27.8145C106.904 27.989 106.571 28.3215 106.396 28.7398C106.222 29.1581 106.219 29.6284 106.389 30.0488C106.558 30.4691 106.887 30.8055 107.303 30.985C107.724 31.1581 108.196 31.1577 108.617 30.9836C109.037 30.8096 109.372 30.4763 109.547 30.0564C109.723 29.6365 109.725 29.1642 109.553 28.7428C109.381 28.3213 109.05 27.985 108.631 27.8073Z" fill="#A6A6A6"/>
<path d="M61.5369 52.8832C61.7883 51.3359 61.3416 49.9759 60.5393 49.8455C59.737 49.7152 58.8828 50.8639 58.6314 52.4112C58.38 53.9585 58.8267 55.3186 59.629 55.4489C60.4314 55.5792 61.2856 54.4305 61.5369 52.8832Z" fill="white"/>
<path d="M78.2675 55.6288C78.5214 54.0661 78.0768 52.6936 77.2744 52.5633C76.4721 52.4329 75.6159 53.5941 75.362 55.1568C75.1081 56.7195 75.5528 58.092 76.3551 58.2223C77.1575 58.3527 78.0137 57.1915 78.2675 55.6288Z" fill="white"/>
<path d="M71.4378 69.0998C71.3795 69.0999 71.3217 69.0881 71.2681 69.065C71.2145 69.042 71.1661 69.0083 71.126 68.966L70.5209 68.3289C69.5501 67.3097 68.2714 66.6378 66.8815 66.4163C65.4916 66.1948 64.0673 66.4361 62.8279 67.1031L62.0548 67.5206C62.0051 67.5474 61.9506 67.5642 61.8944 67.57C61.8382 67.5757 61.7815 67.5704 61.7274 67.5542C61.6733 67.5381 61.6229 67.5114 61.5791 67.4757C61.5352 67.4401 61.4989 67.3962 61.4721 67.3465C61.4452 67.2968 61.4284 67.2423 61.4227 67.1861C61.4169 67.13 61.4222 67.0732 61.4384 67.0191C61.4546 66.965 61.4812 66.9146 61.5169 66.8708C61.5525 66.827 61.5964 66.7906 61.6461 66.7638L62.4193 66.3463C63.8249 65.5898 65.4403 65.3161 67.0167 65.5673C68.5931 65.8185 70.0434 66.5806 71.1444 67.7365L71.7495 68.3736C71.8074 68.4346 71.8461 68.5112 71.861 68.594C71.8758 68.6767 71.866 68.762 71.8328 68.8393C71.7996 68.9166 71.7445 68.9824 71.6743 69.0287C71.6041 69.075 71.5219 69.0997 71.4378 69.0997V69.0998Z" fill="white"/>
</svg>
