<svg width="20" height="20" viewBox="0 0 20 20" fill="none" xmlns="http://www.w3.org/2000/svg">
<path fill-rule="evenodd" clip-rule="evenodd" d="M6.95866 3.125C6.95866 2.39593 7.60008 1.75 8.45085 1.75H11.5498C11.9703 1.75 12.3439 1.90897 12.615 2.1641C12.8855 2.41875 13.042 2.75672 13.042 3.125C13.042 3.85407 12.4006 4.5 11.5498 4.5H8.45085C8.03035 4.5 7.65677 4.34103 7.38569 4.0859C7.11619 3.83225 6.95988 3.49592 6.95867 3.12931L6.95866 3.125ZM6.01114 2.63633C6.25015 1.54301 7.27484 0.75 8.45085 0.75H11.5498C12.2272 0.75 12.8454 1.0077 13.3003 1.4359C13.6408 1.75639 13.8867 2.17003 13.9892 2.63631C14.8518 2.68179 15.6944 2.87443 16.3549 3.39153C17.1551 4.01813 17.5837 5.03476 17.5837 6.50528V14.7447C17.5837 16.1223 17.1479 17.1258 16.3646 17.7714C15.5992 18.4023 14.581 18.625 13.542 18.625H6.45866C5.41966 18.625 4.40144 18.4023 3.63603 17.7714C2.85272 17.1258 2.41699 16.1223 2.41699 14.7447V6.50528C2.41699 5.03476 2.84553 4.01813 3.64579 3.39153C4.30612 2.8745 5.1486 2.68184 6.01114 2.63633ZM3.41699 6.50528C3.41699 5.22932 3.7809 4.55581 4.26229 4.17889C4.68736 3.84606 5.28002 3.68213 6.01561 3.63772C6.12003 4.09972 6.36256 4.51039 6.69779 4.83036C7.15233 5.26418 7.77126 5.52641 8.45085 5.52641H11.5498C12.7244 5.52641 13.7393 4.72946 13.9853 3.63773C14.7208 3.68216 15.3133 3.84609 15.7384 4.17889C16.2197 4.55581 16.5837 5.22932 16.5837 6.50528V14.7447C16.5837 15.9023 16.2269 16.589 15.7286 16.9997C15.2124 17.4252 14.4598 17.625 13.542 17.625H6.45866C5.54088 17.625 4.78827 17.4252 4.27205 16.9997C3.77371 16.589 3.41699 15.9023 3.41699 14.7447V6.50528ZM6.58366 10.625C6.58366 10.3489 6.80752 10.125 7.08366 10.125H10.417C10.6931 10.125 10.917 10.3489 10.917 10.625C10.917 10.9011 10.6931 11.125 10.417 11.125H7.08366C6.80752 11.125 6.58366 10.9011 6.58366 10.625ZM7.08366 13.4583C6.80752 13.4583 6.58366 13.6822 6.58366 13.9583C6.58366 14.2345 6.80752 14.4583 7.08366 14.4583H13.7503C14.0265 14.4583 14.2503 14.2345 14.2503 13.9583C14.2503 13.6822 14.0265 13.4583 13.7503 13.4583H7.08366Z" fill="black"/>
</svg>
