<?xml version="1.0" encoding="UTF-8"?>
<svg width="22px" height="28px" viewBox="0 0 22 28" version="1.1" xmlns="http://www.w3.org/2000/svg" xmlns:xlink="http://www.w3.org/1999/xlink">
    <title>ic_card</title>
    <g id="Page-1" stroke="none" stroke-width="1" fill="none" fill-rule="evenodd">
        <g id="Profile" transform="translate(-29.000000, -658.000000)">
            <g id="Group-4-Copy" transform="translate(12.000000, 640.000000)">
                <g id="ic_card" transform="translate(12.000000, 16.000000)">
                    <rect id="Rectangle" x="0" y="0" width="32" height="32"></rect>
                    <g id="Group" transform="translate(5.333333, 2.666667)">
                        <path d="M19.9971999,20.5191976 C19.9971999,23.0765548 17.9178534,25.1584171 15.3592383,25.1584171 L6.14621116,25.1584171 C3.58885396,25.1584171 1.50950745,23.0765548 1.50950745,20.5191976 L1.50950745,18.8662869 C1.50950745,13.7691834 5.65562124,9.62181173 10.7527247,9.62181173 C15.8510861,9.62181173 19.9971999,13.7691834 19.9971999,18.8662869 L19.9971999,20.5191976 Z M7.53244217,6.39901332 L13.9742652,6.39901332 C14.4472442,6.39901332 14.8321686,6.78393772 14.8321686,7.25691672 C14.8321686,7.7286378 14.4472442,8.11230428 13.9742652,8.11230428 L7.53244217,8.11230428 C7.05946317,8.11230428 6.67453877,7.7286378 6.67453877,7.25691672 C6.67453877,6.78393772 7.05946317,6.39901332 7.53244217,6.39901332 L7.53244217,6.39901332 Z M9.62814168,2.40007651 C10.3652845,2.64033978 11.1414229,2.64033978 11.8785657,2.40007651 L14.581842,1.46669774 L13.537766,4.8907638 L7.96139387,4.8907638 L6.88335397,1.50820919 L9.62814168,2.40007651 Z M15.3604962,9.1639278 C15.95172,8.73371818 16.3404181,8.0418606 16.3404181,7.25691672 C16.3404181,6.33611718 15.8058009,5.54362577 15.0359521,5.15241176 L16.0259374,1.90697074 C16.1869515,1.37864313 16.0422904,0.810061996 15.6473026,0.423879674 C15.2548307,0.0364394286 14.6837337,-0.096900396 14.1554061,0.0716612691 L11.4118763,0.96478651 C10.9816667,1.10441595 10.5250407,1.10441595 10.0948311,0.96478651 L7.34878543,0.0716612691 C6.82423159,-0.096900396 6.25313461,0.0364394286 5.85940475,0.423879674 C5.46315904,0.810061996 5.31975583,1.37864313 5.48076996,1.90697074 L6.47075526,5.15241176 C5.70090646,5.54362577 5.16628924,6.33611718 5.16628924,7.25691672 C5.16628924,8.0418606 5.55498741,8.73371818 6.14495324,9.1639278 C2.51710367,10.8948297 5.68434189e-14,14.5868333 5.68434189e-14,18.8662869 L5.68434189e-14,20.5191976 C5.68434189e-14,23.9092997 2.75736694,26.6666667 6.14621116,26.6666667 L15.3592383,26.6666667 C18.7493404,26.6666667 21.5067074,23.9092997 21.5067074,20.5191976 L21.5067074,18.8662869 C21.5067074,14.5868333 18.9883458,10.8948297 15.3604962,9.1639278 L15.3604962,9.1639278 Z" id="Combined-Shape" fill="#1A1A1A"></path>
                        <path d="M13.1111111,18.8888889 C13.9702207,18.8888889 14.6666667,19.5853348 14.6666667,20.4444444 C14.6666667,21.3035541 13.9702207,22 13.1111111,22 C12.2520015,22 11.5555556,21.3035541 11.5555556,20.4444444 C11.5555556,19.5853348 12.2520015,18.8888889 13.1111111,18.8888889 Z M14.0920475,14.5746192 C14.2522626,14.7348343 14.2645868,14.986937 14.1290202,15.1612886 L14.0920475,15.2031586 L7.86982524,21.4253808 C7.69625888,21.5989471 7.41485223,21.5989471 7.24128588,21.4253808 C7.08107078,21.2651657 7.06874654,21.013063 7.20431316,20.8387114 L7.24128588,20.7968414 L13.4635081,14.5746192 C13.6370744,14.4010529 13.9184811,14.4010529 14.0920475,14.5746192 Z M13.1111111,19.7777778 C12.7429213,19.7777778 12.4444444,20.0762546 12.4444444,20.4444444 C12.4444444,20.8126343 12.7429213,21.1111111 13.1111111,21.1111111 C13.4793009,21.1111111 13.7777778,20.8126343 13.7777778,20.4444444 C13.7777778,20.0762546 13.4793009,19.7777778 13.1111111,19.7777778 Z M8.22222222,14 C9.08133183,14 9.77777778,14.6964459 9.77777778,15.5555556 C9.77777778,16.4146652 9.08133183,17.1111111 8.22222222,17.1111111 C7.36311261,17.1111111 6.66666667,16.4146652 6.66666667,15.5555556 C6.66666667,14.6964459 7.36311261,14 8.22222222,14 Z M8.22222222,14.8888889 C7.85403239,14.8888889 7.55555556,15.1873657 7.55555556,15.5555556 C7.55555556,15.9237454 7.85403239,16.2222222 8.22222222,16.2222222 C8.59041206,16.2222222 8.88888889,15.9237454 8.88888889,15.5555556 C8.88888889,15.1873657 8.59041206,14.8888889 8.22222222,14.8888889 Z" id="Combined-Shape" stroke="#000000" stroke-width="0.3" fill="#000000" fill-rule="nonzero"></path>
                    </g>
                </g>
            </g>
        </g>
    </g>
</svg>