<?xml version="1.0" encoding="UTF-8"?>
<svg width="20px" height="20px" viewBox="0 0 20 20" version="1.1" xmlns="http://www.w3.org/2000/svg" xmlns:xlink="http://www.w3.org/1999/xlink">
    <title>ic_courier</title>
    <g id="Page-1" stroke="none" stroke-width="1" fill="none" fill-rule="evenodd">
        <g id="ic_courier">
            <rect id="Rectangle" x="0" y="0" width="20" height="20"></rect>
            <path d="M18.9663348,12.7520582 C18.9663348,12.9882754 18.7809819,13.1736282 18.5447649,13.1736282 L18.0369844,13.1736282 C17.8007673,11.8261563 16.6300272,10.7959395 15.215311,10.7959395 C13.8023191,10.7959395 12.6307168,11.8261563 12.3953619,13.1736282 L7.60463812,13.1736282 C7.37014525,11.8261563 6.19768094,10.7959395 4.78382689,10.7959395 C3.36997284,10.7959395 2.19837062,11.8261563 1.96301565,13.1736282 L1.45523514,13.1736282 C1.21901806,13.1736282 1.03366524,12.9882754 1.03366524,12.7520582 L1.03366524,11.2821673 C1.03366524,10.7330057 1.36902453,10.2286736 1.87939135,10.0217682 L2.22250959,9.87348594 C2.36906763,9.8131385 2.51045304,9.7398595 2.65097634,9.66571837 L16.5317471,9.66571837 L17.3317816,9.90883225 C18.293892,10.2010862 18.9663348,11.1097461 18.9663348,12.1166861 L18.9663348,12.7520582 Z M15.215311,15.5030389 C14.2040605,15.5030389 13.3798871,14.6788654 13.3798871,13.667615 C13.3798871,12.6546403 14.2040605,11.8304668 15.215311,11.8304668 C16.2282857,11.8304668 17.0524592,12.6546403 17.0524592,13.667615 C17.0524592,14.6788654 16.2282857,15.5030389 15.215311,15.5030389 L15.215311,15.5030389 Z M4.78382689,15.5030389 C3.7717143,15.5030389 2.94840295,14.6788654 2.94840295,13.667615 C2.94840295,12.6546403 3.7717143,11.8304668 4.78382689,11.8304668 C5.79680159,11.8304668 6.62097506,12.6546403 6.62097506,13.667615 C6.62097506,14.6788654 5.79680159,15.5030389 4.78382689,15.5030389 L4.78382689,15.5030389 Z M4.14069572,8.50187506 L5.04763136,7.46217512 C5.85456269,6.55523944 7.00202594,6.03366524 8.19862925,6.03366524 L8.46933056,6.03366524 L8.46933056,8.63205312 L4.01051769,8.63205312 C4.053623,8.58722356 4.10017673,8.54842881 4.14069572,8.50187506 L4.14069572,8.50187506 Z M9.50472,6.03366524 L9.58230956,6.03366524 C10.6556317,6.03366524 11.6780896,6.44230356 12.4600198,7.1811285 L13.8281823,8.48290875 C13.8893918,8.53980775 13.9635329,8.57946462 14.029053,8.63205312 L9.50472,8.63205312 L9.50472,6.03366524 Z M17.6326566,8.91913444 L15.4489417,8.25445062 C15.1118583,8.15444631 14.7963274,7.97254194 14.5376956,7.73115219 L13.1712574,6.43109619 C12.1953533,5.50778051 10.9211604,5 9.58230956,5 L8.19862925,5 C6.70632356,5 5.27695159,5.64657959 4.27173585,6.77852494 L3.3639381,7.81736281 C2.93633346,8.29755594 2.40441398,8.67774475 1.81990603,8.92085869 L1.47937411,9.06827881 C0.581059528,9.43208756 0,10.3010906 0,11.2821673 L0,12.7520582 C0,13.5555412 0.653476444,14.2072934 1.45523514,14.2072934 L1.96732618,14.2072934 C2.22164749,15.5323506 3.38635286,16.5375662 4.78382689,16.5375662 C6.18216303,16.5375662 7.34600631,15.5323506 7.60032762,14.2072934 L12.4005345,14.2072934 C12.6539937,15.5323506 13.817837,16.5375662 15.215311,16.5375662 C16.6136471,16.5375662 17.7783525,15.5323506 18.0318117,14.2072934 L18.5447649,14.2072934 C19.3473857,14.2072934 20,13.5555412 20,12.7520582 L20,12.1166861 C20,10.6571404 19.0266822,9.34329069 17.6326566,8.91913444 L17.6326566,8.91913444 Z" id="Car" fill="#1A1A1A" fill-rule="nonzero"></path>
        </g>
    </g>
</svg>