<svg width="28" height="28" viewBox="0 0 28 28" fill="none" xmlns="http://www.w3.org/2000/svg">
<circle cx="13.9999" cy="14" r="11.6667" fill="#FFEC00"/>
<path fill-rule="evenodd" clip-rule="evenodd" d="M16.2394 18.7137C17.6859 17.2313 18.6667 14.5992 18.6667 12.8333C18.6667 10.256 16.5773 7 14 7C11.4227 7 9.33333 10.256 9.33333 12.8333C9.33333 14.8827 10.6543 18.0988 12.4913 19.3304L12.25 19.25L10.5 21L7 22.75L9.91667 24.5L11.6667 25.0833H14H17.5L19.8333 23.9167L21 22.75L17.5 21L16.3333 18.6667L16.2394 18.7137Z" fill="white"/>
<path d="M25.4912 14C25.4912 20.3465 20.3463 25.4913 13.9999 25.4913C7.65338 25.4913 2.50854 20.3465 2.50854 14C2.50854 7.65353 7.65338 2.5087 13.9999 2.5087C20.3463 2.5087 25.4912 7.65353 25.4912 14Z" stroke="#1A1A18" stroke-linecap="square"/>
<path d="M6.7666 22.4C9.48882 21.2333 10.8888 20.6111 11.6666 19.8333C12.8332 18.6667 9.33324 18.6667 9.33324 12.8333C9.33324 8.94444 10.8888 7 13.9999 7C17.111 7 18.6666 8.94444 18.6666 12.8333C18.6666 18.6667 15.1666 18.6667 16.3332 19.8333C17.111 20.6111 18.3944 21.2333 21.1166 22.4" stroke="#1A1A18" stroke-linecap="round"/>
</svg>
