<svg width="132" height="130" viewBox="0 0 132 130" fill="none" xmlns="http://www.w3.org/2000/svg">
<path d="M33.5293 21.2663C33.5293 21.2663 53.2842 36.1699 83.3167 8.30249C109.989 -16.4464 131.766 22.6018 131.919 41.3011C132.117 65.5246 105.247 84.9061 118.286 100.816C131.326 116.727 92.4271 143 71.4625 120.262C45.3834 91.9776 38.3181 114.959 23.4533 114.959C12.7845 114.959 -9.11949 88.6038 5.67208 68.9965C18.1189 52.4971 11.3309 47.0212 8.04284 41.3011C3.30123 33.0515 14.5627 10.6596 33.5293 21.2663Z" fill="#E8E8E8"/>
<path d="M65.4919 55.1541V110.461L22.2999 91.9131L22.506 36.8066L65.4919 55.1541Z" fill="#858585"/>
<path d="M65.4924 55.1873V110.494L108.474 92.5871V36.9834L65.4924 55.1873Z" fill="#BCBCBC"/>
<path d="M65.4919 55.1539L108.684 37.1682L65.8311 18.2832L22.2999 36.7186L65.4919 55.1539Z" fill="#989898"/>
<path d="M38.5817 29.8235L81.6089 48.4428L81.9997 62.0112L94.0383 57.0727L93.6742 43.4186L49.3741 25.2529L38.5817 29.8235Z" fill="#858585"/>
<path d="M79.1586 75.0301C79.8406 75.0301 80.3934 74.0269 80.3934 72.7894C80.3934 71.552 79.8406 70.5488 79.1586 70.5488C78.4767 70.5488 77.9238 71.552 77.9238 72.7894C77.9238 74.0269 78.4767 75.0301 79.1586 75.0301Z" fill="white"/>
<path d="M99.0511 66.9724C99.733 66.9724 100.286 65.9693 100.286 64.7318C100.286 63.4944 99.733 62.4912 99.0511 62.4912C98.3691 62.4912 97.8163 63.4944 97.8163 64.7318C97.8163 65.9693 98.3691 66.9724 99.0511 66.9724Z" fill="white"/>
<path d="M86.3137 86.8587L85.512 86.5492C87.2885 82.0021 89.5162 79.4971 92.1334 79.1038C94.6372 78.7276 96.746 80.4424 97.5113 81.4016L96.8374 81.9329C96.3081 81.2695 94.4552 79.6199 92.2622 79.9493C90.0039 80.2885 87.9471 82.6778 86.3137 86.8587Z" fill="white"/>
</svg>
