<svg width="29" height="28" viewBox="0 0 29 28" fill="none" xmlns="http://www.w3.org/2000/svg">
<path d="M6.32586 9.93668C6.42978 9.07935 7.07225 8.38555 7.91909 8.21618L8.80581 8.03884C8.93495 8.01301 9.06634 8 9.19804 8H14H18.802C18.9337 8 19.065 8.01301 19.1942 8.03884L20.0809 8.21618C20.9277 8.38555 21.5702 9.07935 21.6741 9.93668L23.5 25H4.5L6.32586 9.93668Z" fill="#FFEC00"/>
<path d="M8.56516 7.85001H19.4347C20.725 7.85001 21.8033 8.83198 21.9238 10.1167L23.2138 23.8767C23.2963 24.7565 22.604 25.5167 21.7203 25.5167H13.9999H6.27952C5.39579 25.5167 4.70358 24.7565 4.78607 23.8767L6.07607 10.1167C6.19651 8.83198 7.27485 7.85001 8.56516 7.85001Z" stroke="#1A1A18" stroke-linecap="square"/>
<path d="M9.33325 7.23333C9.33325 5.99565 9.82492 4.80867 10.7001 3.9335C11.5753 3.05833 12.7622 2.56667 13.9999 2.56667C15.2376 2.56667 16.4246 3.05833 17.2998 3.9335C18.1749 4.80867 18.6666 5.99565 18.6666 7.23333" stroke="#1A1A18" stroke-linecap="square"/>
</svg>
