<?xml version="1.0" encoding="UTF-8"?>
<svg width="19px" height="20px" viewBox="0 0 19 20" version="1.1" xmlns="http://www.w3.org/2000/svg" xmlns:xlink="http://www.w3.org/1999/xlink">
    <title>Trash</title>
    <g id="Symbols" stroke="none" stroke-width="1" fill="none" fill-rule="evenodd">
        <g id="Trash" transform="translate(-3.000000, -2.000000)" fill="#EFEFF4">
            <path d="M13.8490566,17.6603774 L13.8490566,9.16981132 C13.8490566,8.85660377 14.1028302,8.60377358 14.4150943,8.60377358 C14.7283019,8.60377358 14.9811321,8.85660377 14.9811321,9.16981132 L14.9811321,17.6603774 C14.9811321,17.9735849 14.7283019,18.2264151 14.4150943,18.2264151 C14.1028302,18.2264151 13.8490566,17.9735849 13.8490566,17.6603774 L13.8490566,17.6603774 Z M9.13207547,17.6603774 L9.13207547,9.16981132 C9.13207547,8.85660377 9.38584906,8.60377358 9.69811321,8.60377358 C10.0113208,8.60377358 10.2641509,8.85660377 10.2641509,9.16981132 L10.2641509,17.6603774 C10.2641509,17.9735849 10.0113208,18.2264151 9.69811321,18.2264151 C9.38584906,18.2264151 9.13207547,17.9735849 9.13207547,17.6603774 L9.13207547,17.6603774 Z M18.0943396,18.6037736 C18.0943396,19.8518868 17.0783019,20.8679245 15.8301887,20.8679245 L8.28301887,20.8679245 C7.03490566,20.8679245 6.01886792,19.8518868 6.01886792,18.6037736 L6.01886792,5.96226415 L18.0943396,5.96226415 L18.0943396,18.6037736 Z M10.2641509,3.50943396 C10.2641509,3.3009434 10.4330189,3.13207547 10.6415094,3.13207547 L13.4716981,3.13207547 C13.6801887,3.13207547 13.8490566,3.3009434 13.8490566,3.50943396 L13.8490566,4.83018868 L10.2641509,4.83018868 L10.2641509,3.50943396 Z M20.5471698,4.83018868 L14.9811321,4.83018868 L14.9811321,3.50943396 C14.9811321,2.67735849 14.3037736,2 13.4716981,2 L10.6415094,2 C9.80943396,2 9.13207547,2.67735849 9.13207547,3.50943396 L9.13207547,4.83018868 L3.56603774,4.83018868 C3.25377358,4.83018868 3,5.08301887 3,5.39622642 C3,5.70943396 3.25377358,5.96226415 3.56603774,5.96226415 L4.88679245,5.96226415 L4.88679245,18.6037736 C4.88679245,20.4764151 6.41037736,22 8.28301887,22 L15.8301887,22 C17.7028302,22 19.2264151,20.4764151 19.2264151,18.6037736 L19.2264151,5.96226415 L20.5471698,5.96226415 C20.8603774,5.96226415 21.1132075,5.70943396 21.1132075,5.39622642 C21.1132075,5.08301887 20.8603774,4.83018868 20.5471698,4.83018868 L20.5471698,4.83018868 Z"></path>
        </g>
    </g>
</svg>