<?xml version="1.0" encoding="UTF-8"?>
<svg width="28px" height="28px" viewBox="0 0 28 28" version="1.1" xmlns="http://www.w3.org/2000/svg" xmlns:xlink="http://www.w3.org/1999/xlink">
    <title>ic_card</title>
    <g id="Page-1" stroke="none" stroke-width="1" fill="none" fill-rule="evenodd">
        <g id="Profile" transform="translate(-26.000000, -322.000000)">
            <g id="Group-4" transform="translate(12.000000, 240.000000)">
                <g id="Suggestion_1-Copy" transform="translate(0.000000, 64.000000)">
                    <g id="ic_check" transform="translate(12.000000, 16.000000)">
                        <rect id="Rectangle" x="0" y="0" width="32" height="32"></rect>
                        <path d="M22.3210691,17.5553408 C22.3210691,18.0057316 21.951424,18.3693002 21.4965818,18.3693002 L10.5034182,18.3693002 C10.0472019,18.3693002 9.68030506,18.0057316 9.68030506,17.5553408 C9.68030506,17.1049499 10.0472019,16.7413814 10.5034182,16.7413814 L21.4965818,16.7413814 C21.951424,16.7413814 22.3210691,17.1049499 22.3210691,17.5553408 L22.3210691,17.5553408 Z M22.3210691,11.4506452 C22.3210691,11.9010361 21.951424,12.2646046 21.4965818,12.2646046 L10.5034182,12.2646046 C10.0472019,12.2646046 9.68030506,11.9010361 9.68030506,11.4506452 C9.68030506,11.0002544 10.0472019,10.6366858 10.5034182,10.6366858 L21.4965818,10.6366858 C21.951424,10.6366858 22.3210691,11.0002544 22.3210691,11.4506452 L22.3210691,11.4506452 Z M27.6843588,24.2189551 L24.3341922,27.3906836 L20.7284345,23.9788371 C20.4082586,23.6776721 19.9053214,23.6763155 19.5865196,23.9801937 L15.990381,27.3906836 L12.3928682,23.9801937 C12.0740664,23.6763155 11.5697551,23.6763155 11.2495792,23.9801937 L7.65344052,27.3906836 L4.31564121,24.2203117 L4.31564121,7.55042309 C4.31564121,5.7556426 5.79697001,4.29458547 7.6135903,4.29458547 L24.3864097,4.29458547 C26.2044041,4.29458547 27.6843588,5.7556426 27.6843588,7.55042309 L27.6843588,24.2189551 Z M24.3864097,2.66666667 L7.6135903,2.66666667 C4.88591157,2.66666667 2.66666667,4.85757406 2.66666667,7.55042309 L2.66666667,24.4821353 C2.66666667,24.4984145 2.67491154,24.5133371 2.67628568,24.5296163 C2.66529252,24.7561683 2.74224467,24.9840769 2.91950943,25.1536518 L7.08179601,29.1054247 C7.4019719,29.4079463 7.90628328,29.4093029 8.22508503,29.1054247 L11.8212237,25.6949348 L15.4187365,29.1054247 C15.7375382,29.4093029 16.2404755,29.4093029 16.5606513,29.1054247 L20.1581641,25.6949348 L23.7639218,29.1067813 C23.9233227,29.2573638 24.1280704,29.3333333 24.3341922,29.3333333 C24.5389398,29.3333333 24.7450617,29.2573638 24.9044625,29.1067813 L29.0791164,25.1550084 C29.2577553,24.9854335 29.3347075,24.7561683 29.3237143,24.5296163 C29.3250885,24.5119805 29.3333333,24.4984145 29.3333333,24.4821353 L29.3333333,7.55042309 C29.3333333,4.85757406 27.1140884,2.66666667 24.3864097,2.66666667 L24.3864097,2.66666667 Z" id="Bill" fill="#1A1A1A"></path>
                    </g>
                </g>
            </g>
        </g>
    </g>
</svg>