<svg width="16" height="18" viewBox="0 0 16 18" fill="none" xmlns="http://www.w3.org/2000/svg">
<path fill-rule="evenodd" clip-rule="evenodd" d="M9.15904 0.579575C9.65011 0.376164 10.1905 0.322943 10.7118 0.426641C11.2331 0.530339 11.712 0.786298 12.0878 1.16215C12.4637 1.53801 12.7197 2.01687 12.8234 2.5382C12.9271 3.05952 12.8738 3.59989 12.6704 4.09096C12.5716 4.3295 12.4395 4.55121 12.2791 4.75H14.25C15.2165 4.75 16 5.5335 16 6.5V8.375C16 9.16776 15.4729 9.83739 14.75 10.0525V15.25C14.75 15.8799 14.4998 16.484 14.0544 16.9294C13.609 17.3748 13.0049 17.625 12.375 17.625H8H3.625C2.99511 17.625 2.39102 17.3748 1.94562 16.9294C1.50022 16.484 1.25 15.8799 1.25 15.25V10.0525C0.527128 9.83739 0 9.16776 0 8.375V6.5C0 5.5335 0.783502 4.75 1.75 4.75H3.72085C3.56047 4.55121 3.42838 4.3295 3.32957 4.09096C3.12616 3.59989 3.07294 3.05952 3.17664 2.5382C3.28034 2.01687 3.5363 1.53801 3.91215 1.16215C4.288 0.786298 4.76687 0.530339 5.2882 0.426641C5.80952 0.322943 6.34989 0.376164 6.84096 0.579575C7.3065 0.772407 7.70792 1.092 8 1.50125C8.29208 1.092 8.6935 0.772407 9.15904 0.579575ZM8.5 16.625H12.375C12.7397 16.625 13.0894 16.4801 13.3473 16.2223C13.6051 15.9644 13.75 15.6147 13.75 15.25V10.125H8.5V16.625ZM7.5 10.125V16.625H3.625C3.26033 16.625 2.91059 16.4801 2.65273 16.2223C2.39487 15.9644 2.25 15.6147 2.25 15.25V10.125H7.5ZM8.5 9.125H14.25C14.6642 9.125 15 8.78921 15 8.375V6.5C15 6.08579 14.6642 5.75 14.25 5.75H10.1875H8.5L8.5 9.125ZM7.5 5.75H5.8125H1.75C1.33579 5.75 1 6.08579 1 6.5V8.375C1 8.78921 1.33579 9.125 1.75 9.125H7.5V5.75ZM5.8125 4.75H7.5L7.5 3.0625L7.5 3.06109C7.49972 2.72783 7.40077 2.40209 7.21561 2.12498C7.03018 1.84747 6.76663 1.63118 6.45828 1.50345C6.14993 1.37573 5.81063 1.34231 5.48329 1.40743C5.15594 1.47254 4.85526 1.63326 4.61926 1.86926C4.38326 2.10526 4.22254 2.40594 4.15743 2.73329C4.09231 3.06063 4.12573 3.39993 4.25345 3.70828C4.38118 4.01663 4.59747 4.28018 4.87498 4.46561C5.15248 4.65103 5.47874 4.75 5.8125 4.75ZM8.5 4.75H10.1875C10.5213 4.75 10.8475 4.65103 11.125 4.46561C11.4025 4.28018 11.6188 4.01663 11.7465 3.70828C11.8743 3.39993 11.9077 3.06063 11.8426 2.73329C11.7775 2.40594 11.6167 2.10526 11.3807 1.86926C11.1447 1.63326 10.8441 1.47254 10.5167 1.40743C10.1894 1.34231 9.85007 1.37573 9.54172 1.50345C9.23337 1.63118 8.96982 1.84747 8.7844 2.12498C8.59897 2.40248 8.5 2.72875 8.5 3.0625V4.75Z" fill="black"/>
</svg>
