<svg width="28" height="28" viewBox="0 0 28 28" fill="none" xmlns="http://www.w3.org/2000/svg">
<path d="M8.56528 7.8501H19.4348C20.7251 7.8501 21.8035 8.83207 21.9239 10.1167L23.2139 23.8768C23.2964 24.7566 22.6042 25.5168 21.7204 25.5168H14H6.27965C5.39592 25.5168 4.7037 24.7566 4.78619 23.8768L6.07619 10.1167C6.19663 8.83207 7.27497 7.8501 8.56528 7.8501Z" stroke="#7B7B7B" stroke-linecap="square"/>
<path d="M9.33337 7.23332C9.33337 5.99564 9.82504 4.80865 10.7002 3.93349C11.5754 3.05832 12.7624 2.56665 14 2.56665C15.2377 2.56665 16.4247 3.05832 17.2999 3.93349C18.175 4.80865 18.6667 5.99564 18.6667 7.23332" stroke="#7B7B7B" stroke-linecap="square"/>
</svg>
