<svg width="165" height="148" viewBox="0 0 165 148" fill="none" xmlns="http://www.w3.org/2000/svg">
<path d="M74.3465 11.5172C74.3465 11.5172 68.1478 43.7441 32.5051 45.0173C-3.13755 46.2905 -12.891 98.1748 23.292 107.812C59.475 117.449 41.6499 142.39 65.466 147.442C92.5347 153.183 92.8705 112.768 111.693 112.118C153.236 110.685 174.734 91.4835 159.71 75.9095C133.338 48.5714 119.751 52.9782 120.674 31.1311C121.596 9.284 82.5707 -14.8099 74.3465 11.5172Z" fill="#DEE9FF" fill-opacity="0.4"/>
<path d="M115.22 34.728L30.6106 52.3506C27.9149 52.912 26.1806 55.5726 26.737 58.2931L37.6348 111.584C38.1912 114.305 40.8275 116.055 43.5232 115.494L128.133 97.871C130.828 97.3095 132.563 94.6489 132.006 91.9284L121.109 38.6373C120.552 35.9168 117.916 34.1666 115.22 34.728Z" fill="#699CFF" fill-opacity="0.5"/>
<path d="M112.737 41.126L102.992 43.1557C101.375 43.4925 100.334 45.0889 100.668 46.7212L102.679 56.5555C103.013 58.1878 104.595 59.238 106.212 58.9011L115.957 56.8715C117.574 56.5346 118.615 54.9383 118.281 53.306L116.27 43.4716C115.936 41.8393 114.354 40.7892 112.737 41.126Z" fill="white"/>
<path d="M73.7339 82.6346L40.8544 89.4828C40.7466 89.5052 40.6772 89.6117 40.6995 89.7205L41.6942 94.5848C41.7165 94.6936 41.8219 94.7637 41.9298 94.7412L74.8092 87.893C74.9171 87.8706 74.9864 87.7642 74.9642 87.6553L73.9694 82.791C73.9472 82.6822 73.8417 82.6122 73.7339 82.6346Z" fill="white"/>
<path d="M89.8762 89.8612L42.9307 99.639C42.8229 99.6615 42.7535 99.7679 42.7758 99.8767L43.7705 104.741C43.7928 104.85 43.8982 104.92 44.006 104.897L90.9516 95.1196C91.0594 95.0972 91.1288 94.9907 91.1065 94.8819L90.1118 90.0176C90.0895 89.9088 89.984 89.8388 89.8762 89.8612Z" fill="white"/>
<path d="M130.788 111.694C138.629 111.694 144.985 105.279 144.985 97.3666C144.985 89.4537 138.629 83.0391 130.788 83.0391C122.948 83.0391 116.592 89.4537 116.592 97.3666C116.592 105.279 122.948 111.694 130.788 111.694Z" fill="white" stroke="white" stroke-width="15" stroke-miterlimit="10"/>
<path d="M136.258 96.1602H132.215C132.183 96.1602 132.153 96.154 132.124 96.1419C132.095 96.1299 132.069 96.1122 132.047 96.0899C132.024 96.0677 132.007 96.0412 131.995 96.0121C131.983 95.983 131.977 95.9518 131.977 95.9202V91.8405C131.977 91.5223 131.852 91.2171 131.629 90.9921C131.406 90.767 131.103 90.6406 130.788 90.6406C130.473 90.6406 130.17 90.767 129.947 90.9921C129.724 91.2171 129.599 91.5223 129.599 91.8405V95.9202C129.599 95.9518 129.593 95.983 129.581 96.0121C129.569 96.0412 129.551 96.0677 129.529 96.0899C129.507 96.1122 129.481 96.1299 129.452 96.1419C129.423 96.154 129.392 96.1602 129.361 96.1602H125.319C125.006 96.1631 124.706 96.2908 124.485 96.5155C124.265 96.7402 124.141 97.0438 124.141 97.3601C124.141 97.6765 124.265 97.98 124.485 98.2047C124.706 98.4295 125.006 98.5572 125.319 98.5601H129.362C129.425 98.5601 129.485 98.5853 129.53 98.6304C129.574 98.6754 129.599 98.7364 129.599 98.8001V102.88C129.599 103.198 129.725 103.503 129.948 103.728C130.171 103.953 130.473 104.08 130.788 104.08C131.104 104.08 131.406 103.953 131.629 103.728C131.852 103.503 131.977 103.198 131.977 102.88V98.8001C131.977 98.7364 132.002 98.6754 132.047 98.6304C132.092 98.5853 132.152 98.5601 132.215 98.5601H136.258C136.571 98.5572 136.871 98.4295 137.091 98.2047C137.312 97.98 137.436 97.6765 137.436 97.3601C137.436 97.0438 137.312 96.7402 137.091 96.5155C136.871 96.2908 136.571 96.1631 136.258 96.1602Z" fill="#418DF9" fill-opacity="0.5"/>
</svg>
