<svg width="28" height="28" viewBox="0 0 28 28" fill="none" xmlns="http://www.w3.org/2000/svg">
<path d="M25.4912 14.0001C25.4912 20.3466 20.3463 25.4914 13.9999 25.4914C7.65338 25.4914 2.50854 20.3466 2.50854 14.0001C2.50854 7.65362 7.65338 2.50879 13.9999 2.50879C20.3463 2.50879 25.4912 7.65362 25.4912 14.0001Z" stroke="#7B7B7B" stroke-linecap="square"/>
<path d="M6.76672 22.4C9.48895 21.2333 10.8889 20.6111 11.6667 19.8333C12.8334 18.6667 9.33336 18.6667 9.33336 12.8333C9.33336 8.94444 10.8889 7 14 7C17.1111 7 18.6667 8.94444 18.6667 12.8333C18.6667 18.6667 15.1667 18.6667 16.3334 19.8333C17.1111 20.6111 18.3945 21.2333 21.1167 22.4" stroke="#7B7B7B" stroke-linecap="round"/>
</svg>
