<svg width="20" height="20" viewBox="0 0 20 20" fill="none" xmlns="http://www.w3.org/2000/svg">
<path d="M14.0833 14.0859C16.3333 11.8359 16.3333 8.08594 14.0833 5.83594" stroke="black" stroke-miterlimit="10" stroke-linecap="round" stroke-linejoin="round"/>
<path d="M5.91666 5.91406C3.66666 8.16406 3.66666 11.9141 5.91666 14.1641" stroke="black" stroke-miterlimit="10" stroke-linecap="round" stroke-linejoin="round"/>
<path d="M8.08334 11.3359C8.08334 12.0859 8.66668 12.6693 9.41668 12.6693H10.8333C11.4167 12.6693 12 12.1693 12 11.5026C12 10.7526 11.6667 10.5026 11.25 10.3359L8.91668 9.5026C8.33334 9.41927 8.08334 9.16927 8.08334 8.5026C8.08334 7.83594 8.58334 7.33594 9.25001 7.33594H10.75C11.5 7.33594 12.0833 7.91927 12.0833 8.66927" stroke="black" stroke-linecap="round" stroke-linejoin="round"/>
<path d="M10 6.5V13.5" stroke="black" stroke-linecap="round" stroke-linejoin="round"/>
<path d="M9.99999 18.3307C14.6024 18.3307 18.3333 14.5998 18.3333 9.9974C18.3333 5.39502 14.6024 1.66406 9.99999 1.66406C5.39762 1.66406 1.66666 5.39502 1.66666 9.9974C1.66666 14.5998 5.39762 18.3307 9.99999 18.3307Z" stroke="black" stroke-miterlimit="10" stroke-linecap="round" stroke-linejoin="round"/>
</svg>
