<svg width="28" height="28" viewBox="0 0 28 28" fill="none" xmlns="http://www.w3.org/2000/svg">
<path d="M4.66663 11.4286C4.66663 10.8497 4.91751 10.2991 5.35444 9.91926L12.7067 3.52749C13.4605 2.87214 14.5823 2.87345 15.3346 3.53056L22.649 9.91951C23.0838 10.2993 23.3333 10.8485 23.3333 11.4258V23.4505C23.3333 24.5551 22.4379 25.4505 21.3333 25.4505H6.66662C5.56205 25.4505 4.66663 24.5551 4.66663 23.4505V11.4286Z" fill="#FFEC00"/>
<path d="M11.6666 18.2839C11.6666 17.7317 12.1143 17.2839 12.6666 17.2839H15.3333C15.8856 17.2839 16.3333 17.7317 16.3333 18.2839V25.4506H11.6666V18.2839Z" fill="white"/>
<path d="M16.625 25.2173V19.9089C16.625 18.4592 15.4497 17.2839 14 17.2839C12.5503 17.2839 11.375 18.4592 11.375 19.9089V25.2173H16.625Z" stroke="#1A1A18" stroke-linecap="round" stroke-linejoin="round"/>
<path d="M2.91663 12.134L5.01657 10.1839M5.01657 10.1839L12.6934 3.3445C13.4535 2.66735 14.6009 2.66913 15.3589 3.34864L22.9832 10.1839M5.01657 10.1839V23.4505C5.01657 24.555 5.912 25.4505 7.01657 25.4505H13.9999H20.9832C22.0878 25.4505 22.9832 24.555 22.9832 23.4505V10.1839M25.0833 12.134L22.9832 10.1839" stroke="#1A1A18" stroke-linecap="round" stroke-linejoin="round"/>
</svg>
