<?xml version="1.0" encoding="UTF-8"?>
<svg width="27px" height="27px" viewBox="0 0 27 27" version="1.1" xmlns="http://www.w3.org/2000/svg" xmlns:xlink="http://www.w3.org/1999/xlink">
    <title>Group</title>
    <g id="Page-1" stroke="none" stroke-width="1" fill="none" fill-rule="evenodd">
        <g id="Payment-4" transform="translate(-309.000000, -219.000000)">
            <g id="payme-logo" transform="translate(309.000000, 219.000000)">
                <polygon id="path4" points="9.88592252 16.6768605 9.88592252 9.72753777 17.0013639 9.72753777 17.0013639 16.6768605 9.88592252 16.6768605"></polygon>
                <g id="g6">
                    <path d="M24.7212131,19.519163 C25.0981998,20.0576659 25.1362678,20.9059692 24.7357722,21.5636383 C24.3784765,22.1509438 22.2379845,24.4046266 21.5415022,25.1287366 C20.9378659,25.7580327 20.1228712,26.387891 19.3204809,26.387891 L2.52694504,26.387891 C0.257304116,26.387891 0.120231719,25.6207707 0.120231719,23.8859063 L0.120231719,16.8495886 C0.120231719,15.0778656 0.644646247,14.5658593 2.19456392,14.5658593 L19.3205724,14.5658593 C20.1229627,14.5658593 20.8367107,14.9741935 21.6563666,15.8052312 C22.3521036,16.5108596 24.4316659,19.104945 24.7212131,19.519163 Z" id="path8" fill="#33CCCC"></path>
                    <g id="g10" transform="translate(1.765133, 16.605327)" fill="#FFFFFF">
                        <g id="g12">
                            <path d="M2.16215085,0.681524455 C2.16215085,0.63187845 2.16215085,0.683949879 2.16215085,0.635147215 C2.16215085,0.408772155 2.14311356,0.185286683 1.7713569,0.185286683 L0.367749153,0.185286683 C0.0416244552,0.185286683 0.0209070218,0.365284504 0.0209070218,0.644476271 L0.0209070218,2.50400484 C0.704235835,1.53029201 1.46165448,1.07772494 2.16215085,0.681524455 Z" id="path14"></path>
                            <path d="M11.5777504,7.40104649 L11.5777504,7.30129031 L11.5786852,7.30129031 L11.5786852,2.82546828 C11.5786852,0.948392978 10.7509097,0.0104208232 9.09545012,0.0104208232 C8.62114576,0.0104208232 8.18714528,0.128645521 7.79365133,0.365474092 C7.39958862,0.6022046 7.02139903,0.933278208 6.65794504,1.35776005 C6.47943777,0.896328087 6.21032688,0.556579177 5.8503247,0.33813414 C5.49032252,0.119591041 5.02394818,0.0107934625 4.45166586,0.0107934625 C3.78877337,0.0107934625 3.01820121,0.24239201 2.47213438,0.690199758 C2.34989564,0.812157385 0.0208154964,2.64014891 0.0208154964,4.51768838 C0.0208154964,5.54692446 0.0208154964,6.63943075 0.0208154964,6.63943075 C0.0208154964,6.63943075 0.0208154964,7.36576998 0.0208154964,7.38331671 C0.0208154964,7.47439104 -0.0234174334,7.82029831 0.365232203,7.82029831 L1.82613487,7.82029831 C2.28037554,7.82029831 2.23595956,7.52374939 2.23595956,7.40179177 C2.23595956,7.37192833 2.23595956,6.62188402 2.23595956,6.62188402 L2.23595956,2.76649322 C2.48239831,2.44036852 2.98647458,1.63470944 3.80491453,1.63470944 C4.11900363,1.63470944 4.34537869,1.74089855 4.48357554,1.95271453 C4.62233462,2.16453705 4.69194625,2.52052518 4.69194625,3.01899879 L4.69194625,6.63867893 L4.6902661,6.63867893 C4.6902661,6.63867893 4.6902661,7.3650247 4.6902661,7.38257143 C4.6902661,7.47363923 4.64603317,7.81955303 5.03468281,7.81955303 L6.47729346,7.81955303 C6.93181525,7.81955303 6.88739927,7.52300412 6.88739927,7.40104649 L6.88739927,7.30129031 L6.88907942,7.30129031 L6.88907942,2.76649322 C7.15324794,2.44036852 7.67990484,1.63470944 8.45784479,1.63470944 C8.77809879,1.63470944 9.00895206,1.74089855 9.15060073,1.95271453 C9.29177869,2.16453705 9.36241671,2.52052518 9.36241671,3.01899879 L9.36241671,6.63867893 L9.36092615,6.63867893 C9.36092615,6.63867893 9.36092615,7.3650247 9.36092615,7.38257143 C9.36092615,7.47363923 9.31697433,7.81955303 9.70562397,7.81955303 L11.1668927,7.81955303 C11.6221663,7.81955303 11.5777504,7.52300412 11.5777504,7.40104649 L11.5777504,7.40104649 Z" id="path16"></path>
                        </g>
                        <g id="g18" transform="translate(12.552058, 0.065375)">
                            <path d="M7.07248983,5.5158908 C6.55283462,6.90960726 5.30823269,7.68829903 3.76642809,7.68829903 C1.53252785,7.68829903 0.0574452785,6.17094479 0.0574452785,3.89486441 C0.0574452785,1.64641162 1.58888789,0.016520339 3.69663341,0.016520339 C5.78160872,0.016520339 7.18045061,1.46426295 7.26938063,3.79660533 C7.28076247,4.09464479 7.19332954,4.35778692 6.82008232,4.35778692 C6.57074746,4.35778692 2.08083705,4.35778692 2.08083705,4.35778692 C2.1090138,5.6082661 2.71358499,6.28301114 3.78117676,6.28301114 C4.43221671,6.28301114 4.81787215,6.00307409 5.15407772,5.4546799 C5.3002046,5.21589007 5.59946005,5.22923317 5.59946005,5.22923317 C5.59946005,5.22923317 6.62039346,5.22923317 6.82008232,5.22923317 C7.01892785,5.22897167 7.10738717,5.42304479 7.07248983,5.5158908 Z M3.69654189,1.46342615 C2.8109092,1.46342615 2.1927138,2.08161501 2.08036634,3.09387312 L5.25616126,3.09387312 C5.17171598,2.2083385 4.69377022,1.46342615 3.69654189,1.46342615 Z" id="path20"></path>
                        </g>
                    </g>
                    <path d="M8.73865787,1.5451322 C8.53598789,1.23085351 8.29719806,0.976576271 8.02145811,0.780718402 C7.7457247,0.585409685 7.43508741,0.430143341 7.08945472,0.31433753 C6.74429274,0.199564649 6.36535133,0.12099661 5.95328426,0.0790975787 C5.54149831,0.0371070218 5.09826029,0.0163961259 4.62376634,0.0163961259 C4.62376634,0.0163961259 1.08283729,0.0163961259 0.733014044,0.0163961259 C0.383184262,0.0163961259 0.0165595642,0.245477724 0.0165595642,0.677608475 L0.0165595642,6.96760823 C0.509338983,8.0158816 1.46952567,9.12891574 2.56100557,9.6607046 L2.56100557,8.41320654 C2.56100557,7.75498184 3.0582632,7.60782857 3.26392736,7.60782857 C3.46958499,7.60782857 4.4141862,7.60782857 4.4141862,7.60782857 C5.99872663,7.60782857 7.20796053,7.27600969 8.04226707,6.61265303 C8.87648208,5.95004165 9.29349806,4.9654046 9.29349806,3.66005593 C9.29349806,3.26235835 9.24982736,2.88901961 9.1628586,2.53993511 C9.07514455,2.19104019 8.93396005,1.85922131 8.73865787,1.5451322 L8.73865787,1.5451322 Z M6.47173002,4.77542397 C6.32877385,5.01616852 6.1367339,5.19588523 5.89598935,5.31467215 C5.65505521,5.43364867 5.37754358,5.50652252 5.06373559,5.53461429 C4.7494569,5.56250993 4.42482276,5.57660484 4.08974165,5.57660484 C4.08974165,5.57660484 3.26392736,5.57660484 2.99649007,5.57660484 C2.72905932,5.57660484 2.56100557,5.35955884 2.56100557,5.03940291 L2.56100557,2.46780654 C2.56100557,2.17946877 2.74958717,2.058446 2.97577918,2.058446 C3.20196465,2.058446 4.08974165,2.058446 4.08974165,2.058446 C4.45263341,2.058446 4.79284649,2.06908257 5.11066852,2.08979346 C5.42849709,2.1105109 5.70394939,2.17723293 5.9379799,2.28901816 C6.17201041,2.40080339 6.35499588,2.57166174 6.48805424,2.80205085 C6.62037385,3.03215884 6.68681477,3.35707409 6.68681477,3.77558063 C6.68622639,4.20117385 6.61486925,4.53448983 6.47173002,4.77542397 L6.47173002,4.77542397 Z M2.56100557,10.0672671 C1.36063002,9.58875908 0.555814286,9.01843148 0.0165595642,8.4528632 C0.0165595642,10.1700044 0.0165595642,11.4893433 0.0165595642,11.4893433 C0.0165595642,11.4893433 -0.0281375303,11.9846462 0.455312833,11.9846462 L2.15257337,11.9846462 C2.61820242,11.9846462 2.56072446,11.4893433 2.56072446,11.4893433 C2.56072446,11.4893433 2.56098596,10.800791 2.56098596,10.0672671 L2.56100557,10.0672671 Z M26.6151814,3.32543898 L25.0918518,3.32543898 C24.7822409,3.32543898 24.578355,3.45505206 24.4553709,3.79451985 C24.3319162,4.13399419 22.7179831,8.61747167 22.7179831,8.61747167 C22.7179831,8.61747167 21.1734785,4.22655908 21.051985,3.88662058 C20.9310538,3.54668208 20.7308027,3.32543898 20.3710816,3.32543898 L18.9716775,3.32543898 C18.4778651,3.32543898 18.4778651,3.71203584 18.5390826,3.86562857 C18.588722,3.98954746 20.5055455,9.22782857 21.2356242,11.2231286 C21.407692,11.6941642 21.4758065,11.8359109 21.4810366,12.0104956 C21.4867242,12.1855511 21.3084981,12.5514305 21.185514,12.7617559 C21.1247673,12.8654215 21.0596339,12.9531356 20.9917024,13.0332923 C22.4229312,12.6062019 24.0725985,11.055722 24.9256613,9.37609976 C25.7690223,7.03553971 26.8814942,3.94354286 26.9296431,3.78528232 C27.0071847,3.52969758 27.0062499,3.32543898 26.6151814,3.32543898 L26.6151814,3.32543898 Z M19.8888472,13.4787661 C19.7567107,13.4757785 19.6251429,13.4676654 19.4932939,13.4503998 C19.3327976,13.4291266 19.0323262,13.4590816 19.0323262,13.7214719 L19.0323262,14.8942264 C19.0323262,15.3418446 19.2468552,15.3717015 19.365178,15.3981131 C19.6762794,15.4674436 20.0364646,15.5023409 20.4462959,15.5023409 C20.9275039,15.5023409 21.3464811,15.414908 21.7024627,15.2404148 C22.0584508,15.0659215 22.3727295,14.8233988 22.6451092,14.512853 C22.9172077,14.2023138 23.1596324,13.8324203 23.3726644,13.4033688 C23.5852322,12.9743172 23.7896804,12.5012288 23.9849826,11.9847443 C23.9849826,11.9847443 24.0689637,11.7514591 24.2066898,11.3689743 C23.7870654,11.7915864 21.8066971,13.6639939 19.8888472,13.4787661 L19.8888472,13.4787661 Z M17.6014765,4.71765835 C17.5108729,4.5082678 17.3989896,4.32901525 17.2669511,4.17841017 C17.1338862,4.02855036 16.9771228,3.89445908 16.7953467,3.77520799 C16.6000446,3.64932785 16.4012906,3.54659056 16.1988952,3.46606126 C15.9964082,3.38655835 15.7781528,3.31993438 15.5444034,3.26730726 C15.310654,3.21468015 15.0540494,3.17819419 14.7751322,3.15747676 C14.4956659,3.13675932 14.1815768,3.12612276 13.8324923,3.12612276 C11.5247833,3.12612276 10.211132,3.8532138 9.8904138,5.307677 C9.78618596,5.75902809 10.2340852,5.78562276 10.2340852,5.78562276 C10.2340852,5.78562276 11.2831039,5.78562276 11.6537426,5.78562276 C12.0243748,5.78562276 12.0085148,5.66664625 12.1882315,5.33231041 C12.254862,5.14810896 12.3667387,4.99582373 12.5237833,4.87461138 C12.7963525,4.66522082 13.2046867,4.56080339 13.7488838,4.56080339 C14.272553,4.56080339 14.6529915,4.66205012 14.8902843,4.86425593 C15.12776,5.06674286 15.2672644,5.3738368 15.3089738,5.78562276 C15.3089738,6.26356852 15.1595847,6.58232542 14.5801111,6.58232542 C13.1674554,6.53118886 11.649539,6.69075036 10.7945215,7.17933923 C9.93903341,7.66792155 9.45585763,8.62363002 9.45585763,9.64968886 C9.45585763,10.0681954 9.53088232,10.4348201 9.68102324,10.7490988 C9.83088305,11.0629068 10.0402736,11.32633 10.309391,11.539362 C10.5777567,11.7523939 10.8972588,11.9112102 11.2673354,12.0158172 C11.6371308,12.1205092 12.0421046,12.1730448 12.4817927,12.1730448 C13.0960722,12.1730448 13.6392429,12.0957843 14.110285,11.9424726 C14.5813271,11.789161 15.3103729,11.2833131 15.4032189,11.2095044 L15.4032189,11.4790794 C15.4032189,11.7462356 15.4846831,11.9844632 15.8043748,11.9844632 L17.4552581,11.9846593 C17.7895024,11.9846593 17.8635923,11.7464317 17.8635923,11.4533412 C17.8635923,11.1602441 17.8635923,6.38302228 17.8635923,6.38302228 C17.8635923,6.02722373 17.8428748,5.71275545 17.8008843,5.44084649 C17.7585211,5.16800266 17.6920801,4.92753269 17.6014765,4.71767143 L17.6014765,4.71765835 Z M15.3503237,9.689254 C15.3503237,9.689254 14.9239656,10.5721801 13.4026039,10.5721801 C12.9840973,10.5721801 12.6436947,10.4781182 12.3816705,10.2895366 C12.1199274,10.1009484 11.9888237,9.80785787 11.9888237,9.40987918 C11.9888237,8.89292397 12.2018557,8.52845012 12.6277366,8.31513705 C13.0533363,8.10256925 13.9053726,7.98089274 14.5438148,7.99591598 C15.1822569,8.01093923 15.3501276,8.41292542 15.3501276,8.69062663 C15.3503237,8.79280169 15.3503237,9.689254 15.3503237,9.689254 L15.3503237,9.689254 Z" id="path22" fill="#333333"></path>
                </g>
            </g>
        </g>
    </g>
</svg>