<svg width="200" height="152" viewBox="0 0 200 152" fill="none" xmlns="http://www.w3.org/2000/svg">
<g clip-path="url(#clip0_8684_261499)">
<path opacity="0.18" d="M194.794 112.134C192.629 102.589 185.821 96.5545 182.755 87.3669C180.197 79.688 180.732 71.3341 179.244 63.3772C176.37 47.9966 165.943 34.8448 153.319 25.7082C140.694 16.5717 125.889 10.9628 111.179 5.94934C105.362 3.97004 99.4504 2.05314 93.4256 0.952899C90.376 0.379772 87.2844 0.0629739 84.1826 0.00578649C68.0976 -0.204053 53.3822 8.22354 42.5894 19.759C37.7256 24.9766 31.2668 32.3097 29.1251 39.2911C26.6509 47.35 28.956 56.5943 26.6228 64.9312C24.7347 71.6687 20.4232 77.4081 16.5851 83.2269C7.93961 96.2709 0.956677 112.485 6.01775 127.316C10.4251 140.241 23.4159 148.844 36.8407 151.016C50.2655 153.188 63.9665 149.831 76.6248 144.897C84.8984 141.676 93.2114 137.7 102.082 137.74C110.322 137.774 118.094 141.267 125.945 143.78C139.873 148.214 154.577 149.627 169.088 147.925C174.871 147.239 180.788 145.98 185.551 142.606C194.681 136.101 197.285 123.119 194.794 112.134Z" fill="#68E1FD"/>
<path d="M78.5073 126.578C65.951 128.077 53.5762 130.841 41.5693 134.83C40.2054 135.284 38.6725 135.925 38.2441 137.303C51.2599 138.971 64.4111 139.298 77.4928 138.278C86.082 137.609 94.6205 136.361 103.21 135.738C121.307 134.422 139.55 135.885 157.591 133.911C158.487 133.878 159.364 133.639 160.155 133.214C160.542 132.994 160.848 132.654 161.029 132.246C161.209 131.838 161.255 131.382 161.158 130.945C160.863 130.304 160.331 129.804 159.676 129.55C156.644 128.036 153.116 128.008 149.729 128.053C126.881 128.365 103.903 130.786 81.2633 127.667" fill="url(#paint0_linear_8684_261499)"/>
<path d="M114.132 65.2317C104.551 60.7683 94.5134 56.3844 83.9685 56.6623C80.091 56.7644 76.2416 57.5016 72.3585 57.5243C65.8823 57.5534 59.5486 55.6121 54.1882 51.9551C51.2913 62.0047 48.4208 72.0618 45.5765 82.1265C44.7931 84.8998 43.7504 87.7412 43.2319 90.5768C42.3753 95.267 52.9201 97.6093 56.313 98.0403C60.2243 98.5394 64.2033 98.1537 68.1484 98.2842C71.5047 98.3111 74.8133 99.0858 77.8366 100.553C80.7786 102.061 84.2052 102.895 87.3388 104.08C95.0544 106.99 103.193 109.491 111.399 108.748C119.605 108.005 127.935 103.332 130.848 95.5789C131.542 93.7358 131.913 91.7848 132.539 89.9076C134.151 85.1721 139.268 78.996 133.88 75.0884C128.143 70.886 120.557 68.2148 114.132 65.2317Z" fill="#68E1FD"/>
<path d="M106.845 66.122C102.748 64.2448 98.6615 62.2541 94.2823 61.1936C83.7938 58.6698 72.5332 61.6983 62.1067 58.925C61.6146 60.0408 60.7023 60.9142 59.5705 61.3534C58.4386 61.7926 57.1798 61.7617 56.0706 61.2673H56.0425C55.5634 63.1559 55.5747 65.4471 55.2027 67.4377C54.7368 69.9029 54.1864 72.351 53.5514 74.7821C52.3039 79.5659 50.7412 84.2609 48.8735 88.8356C49.8091 88.7392 50.5981 89.658 50.7221 90.5994C50.7684 91.5477 50.5745 92.4922 50.1585 93.3444C50.0965 93.4918 53.1738 94.4219 53.4668 94.4786C54.59 94.6147 55.7253 94.6147 56.8484 94.4786C59.2944 94.2801 61.6728 93.5712 64.1019 93.2309C73.2715 91.9492 82.2327 95.9418 91.1882 98.3351C94.1946 99.1306 97.2453 99.746 100.324 100.178C102.533 100.49 104.799 100.7 106.974 100.178C109.15 99.6565 111.263 98.4145 113.174 97.0704C116.832 94.4843 120.23 91.3991 122.614 87.6163C124.514 84.5878 128.115 76.5459 124.564 73.5968C122.445 71.8387 118.438 71.1014 115.885 70.0409C112.838 68.7932 109.824 67.4869 106.845 66.122Z" fill="url(#paint1_linear_8684_261499)"/>
<path d="M104.055 67.6476C93.9104 64.7439 83.3036 61.9763 72.9334 63.9215C69.1123 64.6361 65.4264 65.9689 61.5995 66.6041C55.2043 67.6492 48.6444 66.724 42.7811 63.9499C41.4774 74.336 40.2036 84.7221 38.96 95.1082C38.6162 97.9722 38.03 100.938 37.9568 103.825C37.8384 108.589 48.6143 109.247 52.0466 109.139C55.9918 109.014 59.8468 108.005 63.7581 107.523C67.0773 107.001 70.4704 107.233 73.6886 108.203C76.8279 109.224 80.3447 109.513 83.6248 110.188C91.6955 111.85 100.121 113.024 108.113 111.022C116.105 109.02 123.601 103.082 125.28 94.9551C125.675 93.0268 125.742 91.0419 126.08 89.1023C126.943 84.1682 131.04 77.2662 125.105 74.2547C118.748 71.0504 110.863 69.6099 104.055 67.6476Z" fill="#68E1FD"/>
<path d="M96.9931 69.6836C92.6534 68.4699 88.3081 67.1485 83.8219 66.7912C73.0685 65.9462 62.4053 70.7101 51.697 69.6269C51.5415 70.2145 51.2721 70.7653 50.9042 71.2476C50.5363 71.73 50.0772 72.1343 49.5534 72.4374C49.0295 72.7405 48.4513 72.9364 47.8519 73.0137C47.2526 73.091 46.644 73.0483 46.0611 72.8879C45.8807 74.8332 46.2471 77.0904 46.1851 79.1264C46.1062 81.6331 45.9427 84.1455 45.6948 86.6409C45.2066 91.5619 44.3913 96.4445 43.2544 101.256C44.1674 101.012 45.0917 101.823 45.3566 102.708C45.5433 103.639 45.4909 104.604 45.2044 105.509C45.165 105.668 48.3493 106.105 48.648 106.105C49.7706 106.07 50.885 105.901 51.9676 105.6C54.3572 105.033 56.5947 103.95 58.9392 103.23C67.7989 100.524 77.2673 103.059 86.4765 103.989C89.5697 104.302 92.6787 104.431 95.787 104.375C98.0414 104.33 100.296 104.188 102.359 103.354C104.517 102.492 106.304 100.938 107.994 99.3106C111.201 96.1801 114.087 92.6241 115.851 88.4897C117.254 85.206 119.571 76.6934 115.603 74.3114C113.236 72.9049 109.161 72.8085 106.478 72.162C103.3 71.3907 100.138 70.5646 96.9931 69.6836Z" fill="url(#paint2_linear_8684_261499)"/>
<path d="M64.3273 102.6C64.1031 101.563 63.9375 100.514 63.8314 99.4582C63.8482 98.4148 63.9557 97.3749 64.1526 96.3503C64.6711 92.5562 64.1526 88.7054 63.9272 84.8772C63.7017 81.0491 63.6792 77.0962 65.1107 73.5346C65.6418 72.0585 66.5683 70.7591 67.7878 69.7801C69.2419 68.7139 71.0848 68.368 72.8601 68.1581C75.1145 67.8916 77.4816 67.7952 79.6233 68.6119C79.0737 68.9028 78.5898 69.3049 78.2018 69.7928C77.8139 70.2808 77.5303 70.8441 77.3689 71.4475C77.0625 72.6659 76.9484 73.9252 77.0307 75.1793C77.1436 79.1991 77.6056 83.2013 78.4115 87.1401C79.2062 91.059 80.3108 95.1991 78.9751 98.9648C78.2256 101.063 76.7771 102.816 75.6781 104.755C74.9511 106.043 74.055 107.631 72.5783 107.591C72.1183 107.54 71.6661 107.433 71.2314 107.273C70.1301 107.052 68.9962 107.052 67.8949 107.273C67.1622 107.375 65.5785 107.914 64.9135 107.517C63.7637 106.882 64.502 103.74 64.3273 102.6Z" fill="url(#paint3_linear_8684_261499)"/>
<path d="M124.511 76.1401C131.222 76.1401 136.662 70.6657 136.662 63.9127C136.662 57.1597 131.222 51.6853 124.511 51.6853C117.8 51.6853 112.36 57.1597 112.36 63.9127C112.36 70.6657 117.8 76.1401 124.511 76.1401Z" fill="#F8C244"/>
<path d="M124.511 74.331C130.232 74.331 134.87 69.664 134.87 63.9071C134.87 58.1501 130.232 53.4832 124.511 53.4832C118.79 53.4832 114.152 58.1501 114.152 63.9071C114.152 69.664 118.79 74.331 124.511 74.331Z" fill="#E8A825"/>
<path d="M125.131 70.5143L124.736 68.8923C123.871 69.1007 122.966 69.0634 122.121 68.7845L122.245 67.6106C123.033 67.8884 123.884 67.9336 124.697 67.741C125.824 67.4631 126.444 66.6067 126.224 65.705C126.004 64.8032 125.255 64.4233 123.97 64.2304C122.183 63.9809 121 63.4875 120.661 62.0924C120.323 60.6972 121.033 59.5176 122.448 58.9164L122.054 57.2944L123.045 57.0505L123.423 58.6045C124.154 58.436 124.916 58.4555 125.638 58.6612L125.503 59.8352C124.808 59.6178 124.066 59.5982 123.361 59.7784C122.127 60.079 121.845 60.9127 122.003 61.5763C122.206 62.4099 122.899 62.7105 124.426 62.9204C126.235 63.1926 127.244 63.8278 127.611 65.257C127.765 65.9481 127.661 66.6723 127.318 67.2909C126.975 67.9094 126.417 68.3787 125.751 68.6087L126.156 70.3101L125.131 70.5143Z" fill="#F8C244"/>
<path d="M143.552 68.3735H78.2029C73.3908 68.3735 69.4897 72.2991 69.4897 77.1414V123.765C69.4897 128.608 73.3908 132.533 78.2029 132.533H143.552C148.364 132.533 152.265 128.608 152.265 123.765V77.1414C152.265 72.2991 148.364 68.3735 143.552 68.3735Z" fill="#68E1FD"/>
<path d="M143.552 68.3735H78.2029C73.3908 68.3735 69.4897 72.2991 69.4897 77.1414V123.765C69.4897 128.608 73.3908 132.533 78.2029 132.533H143.552C148.364 132.533 152.265 128.608 152.265 123.765V77.1414C152.265 72.2991 148.364 68.3735 143.552 68.3735Z" fill="url(#paint4_linear_8684_261499)"/>
<path d="M152.265 82.7219H69.4897V119.676H152.265V82.7219Z" fill="url(#paint5_linear_8684_261499)"/>
<path d="M150.659 96.8777H118.556C115.188 96.8777 112.458 99.625 112.458 103.014V107.738C112.458 111.127 115.188 113.875 118.556 113.875H150.659C154.027 113.875 156.757 111.127 156.757 107.738V103.014C156.757 99.625 154.027 96.8777 150.659 96.8777Z" fill="url(#paint6_linear_8684_261499)"/>
<path d="M151.561 92.0911H119.458C116.09 92.0911 113.36 94.8384 113.36 98.2274V102.952C113.36 106.341 116.09 109.088 119.458 109.088H151.561C154.928 109.088 157.659 106.341 157.659 102.952V98.2274C157.659 94.8384 154.928 92.0911 151.561 92.0911Z" fill="#68E1FD"/>
<path d="M121.775 106.105C124.878 106.105 127.394 103.573 127.394 100.451C127.394 97.3279 124.878 94.7964 121.775 94.7964C118.671 94.7964 116.156 97.3279 116.156 100.451C116.156 103.573 118.671 106.105 121.775 106.105Z" fill="url(#paint7_linear_8684_261499)"/>
<path d="M51.9846 133.259C58.6955 133.259 64.1357 127.785 64.1357 121.032C64.1357 114.279 58.6955 108.804 51.9846 108.804C45.2737 108.804 39.8335 114.279 39.8335 121.032C39.8335 127.785 45.2737 133.259 51.9846 133.259Z" fill="#F8C244"/>
<path d="M51.9902 131.461C57.7113 131.461 62.3491 126.794 62.3491 121.037C62.3491 115.28 57.7113 110.614 51.9902 110.614C46.2692 110.614 41.6313 115.28 41.6313 121.037C41.6313 126.794 46.2692 131.461 51.9902 131.461Z" fill="#E8A825"/>
<path d="M51.0378 127.599V125.926C50.1495 125.922 49.2797 125.67 48.5242 125.2L48.9187 124.066C49.6183 124.524 50.4341 124.77 51.2689 124.775C52.4468 124.775 53.2302 124.1 53.2302 123.159C53.2302 122.217 52.5933 121.684 51.376 121.185C49.6852 120.521 48.6594 119.761 48.6594 118.349C48.6594 116.937 49.6288 115.933 51.1449 115.684V114.016H52.165V115.616C52.9127 115.624 53.6468 115.818 54.301 116.183L53.8952 117.317C53.271 116.94 52.5551 116.743 51.8268 116.75C50.5587 116.75 50.0853 117.516 50.0853 118.173C50.0853 119.035 50.694 119.461 52.1199 120.062C53.8107 120.754 54.6673 121.616 54.6673 123.085C54.6619 123.797 54.3935 124.482 53.9144 125.006C53.4352 125.53 52.7796 125.856 52.0748 125.92V127.622L51.0378 127.599Z" fill="#F8C244"/>
<path d="M53.4387 116.041C52.5414 118.263 52.4143 120.724 53.078 123.028C53.5909 124.786 54.549 126.385 55.0675 128.132C55.237 128.641 55.3097 129.178 55.2817 129.715C55.1746 130.786 54.4194 131.665 53.7036 132.465C54.6674 132.664 55.6424 132.216 56.5216 131.734C57.8858 131.061 59.085 130.093 60.0328 128.898C60.6844 127.925 61.1543 126.841 61.4192 125.699C62.3548 122.181 62.3548 118.476 61.4192 114.958C61.0642 113.648 59.6665 110.035 57.8179 110.88C55.9693 111.725 54.1996 114.152 53.4387 116.041Z" fill="url(#paint8_linear_8684_261499)"/>
<path d="M66.8239 133.594C73.5348 133.594 78.975 128.12 78.975 121.367C78.975 114.614 73.5348 109.139 66.8239 109.139C60.1131 109.139 54.6729 114.614 54.6729 121.367C54.6729 128.12 60.1131 133.594 66.8239 133.594Z" fill="#F8C244"/>
<path d="M66.824 131.79C72.545 131.79 77.1828 127.123 77.1828 121.367C77.1828 115.61 72.545 110.943 66.824 110.943C61.1029 110.943 56.4651 115.61 56.4651 121.367C56.4651 127.123 61.1029 131.79 66.824 131.79Z" fill="#E8A825"/>
<path d="M61.9772 125.864L63.0255 124.565C62.338 123.999 61.8192 123.254 61.5264 122.41L62.5239 121.797C62.7824 122.598 63.2636 123.306 63.9104 123.839C64.8234 124.582 65.8548 124.554 66.4465 123.839C67.0383 123.125 66.8692 122.291 66.238 121.134C65.3475 119.552 65.0206 118.298 65.9168 117.164C66.8129 116.03 68.1711 115.905 69.5125 116.671L70.5551 115.372L71.3498 116.018L70.3466 117.26C70.9229 117.743 71.3703 118.363 71.6485 119.064L70.6566 119.676C70.404 118.99 69.9694 118.385 69.3998 117.93C68.4135 117.124 67.5681 117.419 67.1454 117.93C66.5818 118.599 66.8129 119.319 67.5455 120.686C68.4304 122.297 68.5544 123.522 67.6357 124.656C67.1859 125.201 66.552 125.561 65.8553 125.665C65.1587 125.77 64.4482 125.612 63.8596 125.223L62.7663 126.533L61.9772 125.864Z" fill="#F8C244"/>
</g>
<defs>
<linearGradient id="paint0_linear_8684_261499" x1="100.6" y1="87.8942" x2="98.58" y2="193.749" gradientUnits="userSpaceOnUse">
<stop offset="0.01"/>
<stop offset="0.13" stop-opacity="0.69"/>
<stop offset="0.25" stop-opacity="0.32"/>
<stop offset="1" stop-opacity="0"/>
</linearGradient>
<linearGradient id="paint1_linear_8684_261499" x1="126.169" y1="112.148" x2="-15.3665" y2="7.47917" gradientUnits="userSpaceOnUse">
<stop offset="0.01"/>
<stop offset="0.13" stop-opacity="0.69"/>
<stop offset="0.25" stop-opacity="0.32"/>
<stop offset="1" stop-opacity="0"/>
</linearGradient>
<linearGradient id="paint2_linear_8684_261499" x1="123.476" y1="113.256" x2="-31.781" y2="31.0799" gradientUnits="userSpaceOnUse">
<stop offset="0.01"/>
<stop offset="0.13" stop-opacity="0.69"/>
<stop offset="0.25" stop-opacity="0.32"/>
<stop offset="1" stop-opacity="0"/>
</linearGradient>
<linearGradient id="paint3_linear_8684_261499" x1="108.209" y1="114.215" x2="19.2885" y2="50.34" gradientUnits="userSpaceOnUse">
<stop offset="0.01"/>
<stop offset="0.13" stop-opacity="0.69"/>
<stop offset="0.25" stop-opacity="0.32"/>
<stop offset="1" stop-opacity="0"/>
</linearGradient>
<linearGradient id="paint4_linear_8684_261499" x1="71.5469" y1="143.502" x2="169.013" y2="38.1407" gradientUnits="userSpaceOnUse">
<stop offset="0.01"/>
<stop offset="0.13" stop-opacity="0.69"/>
<stop offset="0.25" stop-opacity="0.32"/>
<stop offset="1" stop-opacity="0"/>
</linearGradient>
<linearGradient id="paint5_linear_8684_261499" x1="186.757" y1="45.484" x2="37.7748" y2="153.514" gradientUnits="userSpaceOnUse">
<stop offset="0.01"/>
<stop offset="0.13" stop-opacity="0.69"/>
<stop offset="0.25" stop-opacity="0.32"/>
<stop offset="1" stop-opacity="0"/>
</linearGradient>
<linearGradient id="paint6_linear_8684_261499" x1="133.306" y1="72.3946" x2="136.239" y2="145.882" gradientUnits="userSpaceOnUse">
<stop offset="0.01"/>
<stop offset="0.13" stop-opacity="0.69"/>
<stop offset="0.25" stop-opacity="0.32"/>
<stop offset="1" stop-opacity="0"/>
</linearGradient>
<linearGradient id="paint7_linear_8684_261499" x1="110.711" y1="75.1225" x2="141.791" y2="145.389" gradientUnits="userSpaceOnUse">
<stop offset="0.01"/>
<stop offset="0.13" stop-opacity="0.69"/>
<stop offset="0.25" stop-opacity="0.32"/>
<stop offset="1" stop-opacity="0"/>
</linearGradient>
<linearGradient id="paint8_linear_8684_261499" x1="73.6436" y1="117.827" x2="22.6488" y2="128.912" gradientUnits="userSpaceOnUse">
<stop offset="0.01"/>
<stop offset="0.13" stop-opacity="0.69"/>
<stop offset="0.25" stop-opacity="0.32"/>
<stop offset="1" stop-opacity="0"/>
</linearGradient>
<clipPath id="clip0_8684_261499">
<rect width="200" height="151.685" fill="white"/>
</clipPath>
</defs>
</svg>
