<svg width="16" height="18" viewBox="0 0 16 18" fill="none" xmlns="http://www.w3.org/2000/svg">
<path fill-rule="evenodd" clip-rule="evenodd" d="M12.6585 16.391C11.6567 16.391 10.8419 15.6402 10.8419 14.718C10.8419 13.7958 11.6567 13.0457 12.6585 13.0457C13.6603 13.0457 14.4751 13.7958 14.4751 14.718C14.4751 15.6402 13.6603 16.391 12.6585 16.391ZM3.34146 10.6736C2.33964 10.6736 1.52486 9.92202 1.52486 9.00059C1.52486 8.07838 2.33964 7.32755 3.34146 7.32755C4.34328 7.32755 5.15807 8.07838 5.15807 9.00059C5.15807 9.92202 4.34328 10.6736 3.34146 10.6736ZM12.6585 1.60978C13.6603 1.60978 14.4751 2.3606 14.4751 3.28282C14.4751 4.20503 13.6603 4.95507 12.6585 4.95507C11.6567 4.95507 10.8419 4.20503 10.8419 3.28282C10.8419 2.3606 11.6567 1.60978 12.6585 1.60978ZM12.6585 12.1031C11.8591 12.1031 11.1366 12.4089 10.619 12.8987L5.95066 10.0369C6.10013 9.71931 6.18297 9.36866 6.18297 9.00072C6.18297 8.63199 6.10013 8.28213 5.95066 7.96372L10.619 5.10274C11.1366 5.59254 11.8591 5.89758 12.6585 5.89758C14.2249 5.89758 15.5 4.72457 15.5 3.28268C15.5 1.84 14.2249 0.666992 12.6585 0.666992C11.0913 0.666992 9.81618 1.84 9.81618 3.28268C9.81618 3.65062 9.89987 4.00048 10.0493 4.31889L5.381 7.17988C4.86343 6.68929 4.14089 6.38424 3.34149 6.38424C1.77427 6.38424 0.5 7.55804 0.5 9.00072C0.5 10.4434 1.77427 11.6164 3.34149 11.6164C4.14089 11.6164 4.86343 11.3114 5.381 10.8208L10.0493 13.6825C9.89987 14.0002 9.81618 14.35 9.81618 14.718C9.81618 16.1606 11.0913 17.3337 12.6585 17.3337C14.2249 17.3337 15.5 16.1606 15.5 14.718C15.5 13.2761 14.2249 12.1031 12.6585 12.1031Z" fill="#1A1A1A"/>
</svg>
