<svg width="18" height="18" viewBox="0 0 18 18" fill="none" xmlns="http://www.w3.org/2000/svg">
<path fill-rule="evenodd" clip-rule="evenodd" d="M9.00033 1.16666C8.30709 1.16666 7.63488 1.25671 6.99476 1.42576C7.00632 1.50274 6.99992 1.58242 6.97457 1.65835C6.61378 2.73885 6.33483 3.83951 6.1377 4.95117C8.03924 4.72457 9.96139 4.72457 11.8629 4.95116C11.6658 3.8395 11.3868 2.73885 11.0261 1.65835C11.0002 1.5808 10.9943 1.50138 11.0058 1.42572C10.3657 1.2567 9.69352 1.16666 9.00033 1.16666ZM12.0215 5.97882C10.0162 5.71535 7.98446 5.71535 5.97916 5.97882C5.71569 7.98413 5.71569 10.0158 5.97916 12.0211C7.98446 12.2846 10.0162 12.2846 12.0215 12.0211C12.2849 10.0158 12.2849 7.98413 12.0215 5.97882ZM5.0983 5.09797C5.26886 4.05445 5.5083 3.01949 5.81663 1.99999H5.66697C5.61687 1.99999 5.5685 1.99262 5.52286 1.97891C3.87398 2.79715 2.55436 4.17915 1.81611 5.87281C2.89507 5.53709 3.99188 5.27881 5.0983 5.09797ZM1.42606 6.99453C1.50172 7.00595 1.58113 7.00012 1.65868 6.97423C2.73919 6.61345 3.83984 6.33449 4.9515 6.13737C4.72491 8.03891 4.72491 9.96105 4.9515 11.8626C3.83984 11.6655 2.73919 11.3865 1.65868 11.0257C1.58276 11.0004 1.50307 10.994 1.42609 11.0055C1.25704 10.3654 1.16699 9.69322 1.16699 8.99999C1.16699 8.30679 1.25704 7.63461 1.42606 6.99453ZM13.0491 6.13736C14.1608 6.33449 15.2615 6.61344 16.342 6.97423C16.4195 7.00012 16.4989 7.00595 16.5746 6.99453C16.7436 7.63461 16.8337 8.30679 16.8337 8.99999C16.8337 9.69322 16.7436 10.3654 16.5746 11.0055C16.4976 10.994 16.4179 11.0004 16.342 11.0257C15.2615 11.3865 14.1608 11.6655 13.0491 11.8626C13.2757 9.96105 13.2757 8.0389 13.0491 6.13736ZM16.1845 5.87281C15.1056 5.53709 14.0088 5.2788 12.9023 5.09796C12.7215 3.99154 12.4632 2.89473 12.1275 1.81576C13.9395 2.60559 15.3947 4.06083 16.1845 5.87281ZM2.00033 12.3333C2.00033 12.3834 1.99296 12.4318 1.97924 12.4774C2.74033 14.0112 3.98916 15.26 5.52286 16.0211C5.56849 16.0074 5.61687 16 5.66697 16H5.81663C5.5083 14.9805 5.26886 13.9455 5.0983 12.902C4.05478 12.7314 3.01983 12.492 2.00033 12.1837V12.3333ZM11.8629 13.0488C9.96139 13.2754 8.03924 13.2754 6.1377 13.0488C6.33482 14.1605 6.61378 15.2611 6.97457 16.3416C6.99992 16.4176 7.00632 16.4972 6.99476 16.5742C7.63488 16.7433 8.30709 16.8333 9.00033 16.8333C9.69352 16.8333 10.3657 16.7433 11.0058 16.5743C10.9943 16.4986 11.0002 16.4192 11.0261 16.3416C11.3869 15.2611 11.6658 14.1605 11.8629 13.0488ZM12.1275 16.1842C12.4632 15.1052 12.7215 14.0084 12.9023 12.902C13.9459 12.7314 14.9808 12.492 16.0003 12.1837V12.3333C16.0003 12.3834 16.0077 12.4318 16.0214 12.4774C15.2032 14.1263 13.8212 15.446 12.1275 16.1842ZM0.166992 8.99999C0.166992 4.12147 4.12181 0.166656 9.00033 0.166656C13.8788 0.166656 17.8337 4.12147 17.8337 8.99999C17.8337 13.8785 13.8788 17.8333 9.00033 17.8333C4.12181 17.8333 0.166992 13.8785 0.166992 8.99999Z" fill="black"/>
</svg>
