<svg xmlns="http://www.w3.org/2000/svg" width="94" height="48" viewBox="0 0 94 48">
    <g fill="none" fill-rule="evenodd">
        <g>
            <g>
                <g>
                    <path d="M0 0H94V48H0z" transform="translate(-281 -1047) translate(0 1047) translate(281)"/>
                    <g>
                        <path d="M0 0H32V32H0z" transform="translate(-281 -1047) translate(0 1047) translate(281) translate(31 8)"/>
                        <path fill="#FDE61D" d="M26.84 27.101c-.335.429-.859.685-1.401.685H5.97c-.542 0-1.066-.256-1.402-.685-.316-.402-.424-.89-.307-1.37 1.3-5.273 6.006-8.956 11.444-8.956 5.438 0 10.143 3.683 11.443 8.955.118.482.01.969-.307 1.371M10.199 9.721c0-3.034 2.47-5.505 5.506-5.505 3.035 0 5.505 2.47 5.505 5.506s-2.47 5.504-5.505 5.504c-3.036 0-5.506-2.468-5.506-5.504M28.652 25.36c-1.167-4.735-4.761-8.336-9.269-9.621 2.023-1.242 3.376-3.474 3.376-6.017 0-3.89-3.164-7.055-7.054-7.055S8.65 5.832 8.65 9.722c0 2.543 1.353 4.775 3.376 6.017-4.508 1.285-8.102 4.886-9.269 9.62-.23.94-.015 1.923.593 2.696.635.814 1.592 1.278 2.62 1.278H25.44c1.029 0 1.985-.464 2.62-1.278.608-.773.824-1.757.593-2.695" transform="translate(-281 -1047) translate(0 1047) translate(281) translate(31 8)"/>
                    </g>
                </g>
            </g>
        </g>
    </g>
</svg>
