<svg width="25" height="24" viewBox="0 0 25 24" fill="none" xmlns="http://www.w3.org/2000/svg">
<g clip-path="url(#clip0_2_342)">
<path d="M4.52567 10.1153C4.52567 9.83915 4.74952 9.6153 5.02567 9.6153H19.9347C20.2108 9.6153 20.4347 9.83915 20.4347 10.1153V18.2668C20.4347 20.1998 18.8677 21.7668 16.9347 21.7668H8.02567C6.09267 21.7668 4.52567 20.1998 4.52567 18.2668V10.1153Z" stroke="#1A1A18" stroke-linecap="round"/>
<path d="M20.9351 10.0546H21.8745C22.9121 10.0546 23.7533 10.8958 23.7533 11.9334V11.9334C23.7533 12.971 22.9121 13.8122 21.8745 13.8122H20.9351" stroke="#1A1A18" stroke-linecap="round"/>
<path d="M4.02567 13.8121L3.08628 13.8121C2.04865 13.8121 1.2075 12.971 1.2075 11.9334V11.9334C1.2075 10.8957 2.04865 10.0546 3.08628 10.0546L4.02567 10.0546" stroke="#1A1A18" stroke-linecap="round"/>
<path d="M4.51195 7.54834L19.9374 3.4151" stroke="#1A1A18" stroke-linecap="round"/>
<path d="M10.4102 5.96784V5.96784C10.1416 4.96557 10.7364 3.93537 11.7387 3.66681L13.5534 3.18055C14.5557 2.91199 15.5859 3.50678 15.8544 4.50905V4.50905" stroke="#1A1A18" stroke-linecap="round"/>
<circle cx="18.4378" cy="7.33381" r="1.14869" fill="#1A1A18"/>
<circle cx="21.3095" cy="5.61078" r="0.574343" fill="#1A1A18"/>
<path d="M13.8431 7.3338C12.5743 7.3338 11.5457 8.36237 11.5457 9.63117H16.1404C16.1404 8.36237 15.1119 7.3338 13.8431 7.3338Z" fill="#1A1A18"/>
</g>
<defs>
<clipPath id="clip0_2_342">
<rect width="24" height="24" fill="white" transform="translate(0.666672)"/>
</clipPath>
</defs>
</svg>
