<svg width="157" height="134" viewBox="0 0 157 134" fill="none" xmlns="http://www.w3.org/2000/svg">
<path d="M106.178 5.60917C106.178 5.60917 84.8104 32.8099 50.6218 16.5849C16.4331 0.359831 -17.7556 44.2629 11.6846 70.9864C41.1249 97.7099 12.3154 112.394 32.316 128.772C55.0479 147.387 74.8387 109.64 92.8827 118.23C132.707 137.188 162.21 129.683 155.562 107.731C143.893 69.1984 128.971 66.6916 140.367 46.6489C151.763 26.6062 126.612 -15.0675 106.178 5.60917Z" fill="#DEE9FF" fill-opacity="0.5"/>
<path d="M94.5448 80.8368L92.8567 89.945L84.8161 133.242L70.3322 130.525L79.6191 80.5084L80.0607 78.125L94.5448 80.8368Z" fill="#699CFF" fill-opacity="0.34"/>
<path d="M130.215 59.0515L125.221 85.9602C125.207 86.0391 125.177 86.1143 125.133 86.1815C125.089 86.2487 125.033 86.3067 124.967 86.352C124.901 86.3974 124.827 86.4293 124.749 86.4458C124.671 86.4624 124.59 86.4633 124.512 86.4486L54.3458 73.2967L62.6044 28.7969L115.886 38.784C125.543 40.5937 131.957 49.6659 130.215 59.0515Z" fill="#A2BDFF" fill-opacity="0.4"/>
<path d="M77.5911 50.0241L72.6359 76.724L35.8054 69.8206L40.7605 43.1207C42.5849 33.2902 52.309 26.8662 62.4793 28.7724C72.6496 30.6787 79.4155 40.1934 77.5911 50.0241Z" fill="#699CFF" fill-opacity="0.34"/>
<path d="M94.7373 62.5037C92.0232 61.995 90.2325 59.344 90.7436 56.5911C91.2547 53.8382 93.8756 52.0137 96.5897 52.5227C97.4549 52.686 98.2616 53.0767 98.9278 53.6551C99.594 54.2334 100.096 54.9787 100.382 55.8153L134.666 62.2414L133.74 67.2321L99.4562 60.8059C98.889 61.4825 98.1535 61.9961 97.3246 62.2943C96.4957 62.5925 95.603 62.6648 94.7373 62.5037Z" fill="#418DF9" fill-opacity="0.34"/>
<path d="M76.3693 50.5168L71.5414 76.5305L36.8457 70.0271L41.6739 44.0133C43.4514 34.4356 52.6595 28.1267 62.2404 29.9226C71.8213 31.7184 78.1467 40.9389 76.3693 50.5168Z" fill="#418DF9" fill-opacity="0.34"/>
<path d="M95.7095 59.983C97.1045 59.983 98.2354 58.8466 98.2354 57.4446C98.2354 56.0427 97.1045 54.9062 95.7095 54.9062C94.3146 54.9062 93.1837 56.0427 93.1837 57.4446C93.1837 58.8466 94.3146 59.983 95.7095 59.983Z" fill="white"/>
<path d="M135.063 62.2242L132.034 78.5423C132.021 78.6126 131.981 78.6747 131.922 78.7152C131.863 78.7556 131.791 78.7709 131.721 78.7578L123.76 77.2656C123.747 77.263 123.734 77.2551 123.726 77.2434C123.718 77.2318 123.715 77.2174 123.718 77.2036L126.786 60.6728C126.789 60.6589 126.797 60.6467 126.808 60.6387C126.82 60.6307 126.834 60.6277 126.848 60.6303L135.02 62.1621C135.034 62.1647 135.046 62.1727 135.054 62.1843C135.062 62.196 135.065 62.2103 135.063 62.2242Z" fill="#699CFF" fill-opacity="0.34"/>
<path d="M48.3273 60.6871C48.6625 63.1655 51.3686 66.1112 51.3686 66.1112C47.2451 66.405 45.012 64.0614 44.0511 62.6374C42.863 62.9824 41.642 63.2002 40.4084 63.2871C31.943 63.8901 24.6555 58.3358 24.1292 50.8749C23.6029 43.414 30.0381 36.8821 38.5035 36.2792C46.9689 35.6763 54.2559 41.2303 54.7821 48.6912C55.1244 53.5443 52.5187 58.005 48.3273 60.6871Z" fill="white"/>
<path d="M30.1241 50.3429C30.9122 50.3429 31.551 49.5404 31.551 48.5504C31.551 47.5604 30.9122 46.7578 30.1241 46.7578C29.336 46.7578 28.6971 47.5604 28.6971 48.5504C28.6971 49.5404 29.336 50.3429 30.1241 50.3429Z" fill="#418DF9"/>
<path d="M46.534 50.3429C47.3221 50.3429 47.9609 49.5404 47.9609 48.5504C47.9609 47.5604 47.3221 46.7578 46.534 46.7578C45.7459 46.7578 45.1071 47.5604 45.1071 48.5504C45.1071 49.5404 45.7459 50.3429 46.534 50.3429Z" fill="#418DF9"/>
<path d="M43.4274 57.5165C43.3844 57.5165 43.342 57.5063 43.3044 57.4869C43.2668 57.4675 43.2351 57.4394 43.2123 57.4054C43.199 57.3857 41.8128 55.3885 38.591 55.1382C37.2501 55.034 35.9774 55.3823 34.8101 56.1737C34.2894 56.5224 33.8269 56.941 33.4377 57.416C33.3989 57.4668 33.3402 57.5013 33.2743 57.5119C33.2084 57.5225 33.1407 57.5084 33.0859 57.4726C33.0312 57.4368 32.9938 57.3822 32.982 57.3208C32.9702 57.2594 32.9849 57.1962 33.0229 57.1449C33.0442 57.1165 33.5536 56.4449 34.4972 55.8018C35.7516 54.9468 37.1818 54.5548 38.633 54.6673C42.1183 54.9382 43.5812 57.0648 43.6416 57.1551C43.6655 57.1909 43.6788 57.2319 43.68 57.2741C43.6812 57.3162 43.6703 57.3579 43.6484 57.3947C43.6265 57.4316 43.5945 57.4623 43.5556 57.4838C43.5166 57.5052 43.4723 57.5165 43.4271 57.5165L43.4274 57.5165Z" fill="#418DF9"/>
<path d="M72.6715 76.7407C72.2882 77.7159 65.2778 106.766 42.5919 102.514C17.7154 98.2815 35.7091 69.8125 35.7091 69.8125L72.6715 76.7407Z" fill="#A2BDFF" fill-opacity="0.4"/>
<path d="M94.5449 80.8368L92.8568 89.945L79.6193 80.5084L80.0609 78.125L94.5449 80.8368Z" fill="#418DF9" fill-opacity="0.34"/>
</svg>
