<svg width="20" height="20" viewBox="0 0 20 20" fill="none" xmlns="http://www.w3.org/2000/svg">
<path fill-rule="evenodd" clip-rule="evenodd" d="M9.15005 3.45078C8.45519 4.01459 8.03716 4.91755 7.91442 6.34291C7.89073 6.61803 7.64849 6.82186 7.37336 6.79817C7.09824 6.77448 6.89441 6.53224 6.9181 6.25712C7.0537 4.68247 7.53566 3.47293 8.51997 2.67425C9.49047 1.88677 10.858 1.57501 12.5913 1.57501H12.6996C14.6115 1.57501 16.0802 1.95479 17.0584 2.93292C18.0365 3.91105 18.4163 5.37973 18.4163 7.29168V12.725C18.4163 14.637 18.0365 16.1056 17.0584 17.0838C16.0802 18.0619 14.6115 18.4417 12.6996 18.4417H12.5913C10.8706 18.4417 9.51111 18.1341 8.54245 17.3592C7.55934 16.5727 7.07136 15.3811 6.92675 13.8298C6.90112 13.5548 7.10323 13.3111 7.37818 13.2855C7.65313 13.2599 7.8968 13.462 7.92243 13.7369C8.05282 15.1356 8.47318 16.0232 9.16715 16.5783C9.87557 17.1451 10.9619 17.4417 12.5913 17.4417H12.6996C14.5126 17.4417 15.6523 17.0756 16.3512 16.3767C17.0502 15.6777 17.4163 14.5381 17.4163 12.725V7.29168C17.4163 5.47863 17.0502 4.33898 16.3512 3.64002C15.6523 2.94107 14.5126 2.57501 12.6996 2.57501H12.5913C10.9495 2.57501 9.85871 2.87576 9.15005 3.45078ZM3.29014 9.50002L5.22823 7.56193C5.42349 7.36667 5.42349 7.05008 5.22823 6.85482C5.03297 6.65956 4.71638 6.65956 4.52112 6.85482L1.72945 9.64649C1.63569 9.74026 1.58301 9.86743 1.58301 10C1.58301 10.1326 1.63569 10.2598 1.72945 10.3536L4.52112 13.1453C4.71638 13.3405 5.03297 13.3405 5.22823 13.1453C5.42349 12.95 5.42349 12.6334 5.22823 12.4382L3.29009 10.5H12.4998C12.7759 10.5 12.9998 10.2762 12.9998 10C12.9998 9.72388 12.7759 9.50002 12.4998 9.50002H3.29014Z" fill="black"/>
</svg>
