<svg width="25" height="24" viewBox="0 0 25 24" fill="none" xmlns="http://www.w3.org/2000/svg">
<path d="M17.8283 21.0718C16.9986 21.317 16.018 21.4301 14.8677 21.4301H9.21057C8.06029 21.4301 7.07971 21.317 6.25 21.0718C6.45743 18.6204 8.97486 16.6875 12.0391 16.6875C15.1034 16.6875 17.6209 18.6204 17.8283 21.0718Z" stroke="#8E8E93" stroke-linecap="round" stroke-linejoin="round"/>
<path d="M14.8677 2.57227H9.2106C4.49631 2.57227 2.6106 4.45798 2.6106 9.17227V14.8294C2.6106 18.3934 3.68545 20.3451 6.25002 21.0711C6.45745 18.6197 8.97488 16.6868 12.0392 16.6868C15.1035 16.6868 17.6209 18.6197 17.8283 21.0711C20.3929 20.3451 21.4677 18.3934 21.4677 14.8294V9.17227C21.4677 4.45798 19.582 2.57227 14.8677 2.57227ZM12.0392 14.0468C10.1723 14.0468 8.66374 12.5289 8.66374 10.662C8.66374 8.79514 10.1723 7.28655 12.0392 7.28655C13.906 7.28655 15.4146 8.79514 15.4146 10.662C15.4146 12.5289 13.906 14.0468 12.0392 14.0468Z" stroke="#8E8E93" stroke-linecap="round" stroke-linejoin="round"/>
<path d="M15.4146 10.6626C15.4146 12.5294 13.906 14.0474 12.0391 14.0474C10.1723 14.0474 8.6637 12.5294 8.6637 10.6626C8.6637 8.7957 10.1723 7.28711 12.0391 7.28711C13.906 7.28711 15.4146 8.7957 15.4146 10.6626Z" stroke="#8E8E93" stroke-linecap="round" stroke-linejoin="round"/>
</svg>
