<?xml version="1.0" encoding="UTF-8"?>
<svg width="20px" height="19px" viewBox="0 0 20 19" version="1.1" xmlns="http://www.w3.org/2000/svg" xmlns:xlink="http://www.w3.org/1999/xlink">
    <title>ic_back_arrow copy</title>
    <g id="Restaurant" stroke="none" stroke-width="1" fill="none" fill-rule="evenodd">
        <g id="Info-page" transform="translate(-297.000000, -58.000000)">
            <g id="ic_star" transform="translate(295.000000, 56.000000)">
                <rect id="Rectangle" x="0" y="0" width="24" height="24"></rect>
                <path d="M17.5123101,13.1464517 C17.1906489,13.4817039 17.0387796,13.9347969 17.0944336,14.3906303 L17.6575764,18.9562725 C17.6877616,19.1992618 17.5321191,19.3362859 17.4642024,19.3847011 C17.3962857,19.4322028 17.2132878,19.5317736 16.9850122,19.4303758 L12.6751302,17.5001633 C12.2459342,17.3074161 11.7544812,17.3074161 11.324342,17.5001633 L7.01445998,19.4303758 C6.78429775,19.5317736 6.60318649,19.4322028 6.53526977,19.3847011 C6.46735305,19.3362859 6.31265385,19.1992618 6.34189577,18.9562725 L6.90598188,14.3897168 C6.96069258,13.9347969 6.80882324,13.4817039 6.48810538,13.1464517 L3.26206106,9.77383249 C3.08943939,9.59387421 3.13188734,9.39473255 3.15735611,9.31708558 C3.18376817,9.24035209 3.26960736,9.05491285 3.51769206,9.00741117 L8.17659057,8.11584119 C8.64068817,8.02723229 9.03875563,7.74678968 9.26891786,7.34759288 L11.5837462,3.331874 C11.7073169,3.11902994 11.9157835,3.0961926 11.9997361,3.0961926 C12.0836887,3.0961926 12.2930986,3.11902994 12.4166693,3.331874 L14.7314976,7.34759288 C14.9616598,7.74678968 15.3597273,8.02723229 15.8238249,8.11584119 L20.4817801,9.00832466 C20.7298648,9.05491285 20.8166473,9.24035209 20.842116,9.31708558 C20.8685281,9.39473255 20.9109761,9.59387421 20.7383544,9.77383249 L17.5123101,13.1464517 Z M21.5693909,10.5192435 C21.9712316,10.0990363 22.1014053,9.52262169 21.9193507,8.97909286 C21.7372962,8.43465054 21.2807449,8.04367518 20.7015662,7.93222893 L16.0426676,7.04065895 C15.9058909,7.01416763 15.7879799,6.93103969 15.7191199,6.81319899 L13.4042916,2.79748011 C13.1156456,2.29779899 12.5902342,2 11.9997361,2 C11.4092379,2 10.8847699,2.29779899 10.5961238,2.79748011 L8.28129551,6.81319899 C8.2124355,6.93103969 8.09452453,7.01416763 7.95680451,7.04065895 L3.29884928,7.93222893 C2.71872728,8.04367518 2.26311926,8.43465054 2.08106472,8.97909286 C1.89806688,9.52262169 2.02918389,10.0990363 2.43102449,10.5192435 L5.65895539,13.8918627 C5.75328417,13.9914335 5.79856199,14.1257171 5.78158281,14.2600007 L5.21843998,18.8265563 C5.14863669,19.3947495 5.39106165,19.9355379 5.87025186,20.2717036 C6.15323821,20.4708452 6.48055908,20.5714286 6.81070981,20.5714286 C7.03992875,20.5714286 7.27103427,20.5229144 7.48987704,20.4251705 L11.7997591,18.4940446 C11.9271029,18.437408 12.0723692,18.437408 12.1997131,18.4940446 L16.5105384,20.4251705 C17.0453826,20.6645059 17.6500301,20.6078693 18.1292203,20.2717036 C18.6084105,19.9355379 18.8517788,19.3947495 18.7819755,18.8265563 L18.2178893,14.2609142 C18.2009102,14.1257171 18.246188,13.9914335 18.3424033,13.8918627 L21.5693909,10.5192435 Z" id="Star" fill="#1A1A1A"></path>
            </g>
        </g>
    </g>
</svg>