<svg width="26" height="24" viewBox="0 0 26 24" fill="none" xmlns="http://www.w3.org/2000/svg">
<path d="M22.1486 14.5978L9.01327 16.4743C7.56262 16.6815 6.17454 15.8104 5.73023 14.4141L2.41667 4H23.92C24.5598 4 25.035 4.59242 24.8962 5.21693L22.9834 13.8248C22.8931 14.2311 22.5606 14.539 22.1486 14.5978Z" fill="#FFEC00"/>
<path d="M1.25 0.5L2.41667 4M2.41667 4L5.73023 14.4141C6.17454 15.8104 7.56262 16.6815 9.01327 16.4743L22.1486 14.5978C22.5606 14.539 22.8931 14.2311 22.9834 13.8248L24.8962 5.21693C25.035 4.59242 24.5598 4 23.92 4H2.41667Z" stroke="#1A1A18" stroke-linecap="round"/>
<path d="M19.9167 23.25C20.8832 23.25 21.6667 22.4665 21.6667 21.5C21.6667 20.5335 20.8832 19.75 19.9167 19.75C18.9502 19.75 18.1667 20.5335 18.1667 21.5C18.1667 22.4665 18.9502 23.25 19.9167 23.25Z" fill="#FFEC00" stroke="#1A1A18" stroke-miterlimit="10" stroke-linecap="round" stroke-linejoin="round"/>
<path d="M8.25 23.25C9.2165 23.25 10 22.4665 10 21.5C10 20.5335 9.2165 19.75 8.25 19.75C7.2835 19.75 6.5 20.5335 6.5 21.5C6.5 22.4665 7.2835 23.25 8.25 23.25Z" fill="#FFEC00" stroke="#1A1A18" stroke-miterlimit="10" stroke-linecap="round" stroke-linejoin="round"/>
</svg>
