<svg width="16" height="22" viewBox="0 0 16 22" fill="none" xmlns="http://www.w3.org/2000/svg">
<circle cx="12.5334" cy="3.66286" r="2.1675" stroke="black"/>
<path d="M5.20198 15.2686L5.40688 15.7247L5.56799 15.6523L5.64789 15.4948L5.20198 15.2686ZM12.0082 12.0895L11.5631 12.3172L11.7024 12.5895H12.0082V12.0895ZM9.31177 7.16719L8.86587 6.94098L9.31177 7.16719ZM9.48998 7.16689L9.93512 6.93917L9.48998 7.16689ZM8.86587 6.94098L4.75608 15.0424L5.64789 15.4948L9.75768 7.39339L8.86587 6.94098ZM0.995632 17.7063L5.40688 15.7247L4.99709 14.8125L0.58585 16.7942L0.995632 17.7063ZM9.04485 7.3946L11.5631 12.3172L12.4533 11.8617L9.93512 6.93917L9.04485 7.3946ZM12.0082 12.5895H15.8761V11.5895H12.0082V12.5895ZM9.75768 7.39339C9.60981 7.68489 9.19371 7.68559 9.04485 7.3946L9.93512 6.93917C9.71183 6.50268 9.08768 6.50374 8.86587 6.94098L9.75768 7.39339Z" fill="black"/>
<path d="M8.76731 13.5104L10.6929 17.0636V21.0047M6.92925 6.24193L4.60457 5.10486L2.20432 10.7641L4.40241 11.8001" stroke="black"/>
</svg>
