<svg width="20" height="20" viewBox="0 0 20 20" fill="none" xmlns="http://www.w3.org/2000/svg">
<path fill-rule="evenodd" clip-rule="evenodd" d="M3.27006 3.26762C2.56356 3.97411 2.1665 5.07447 2.1665 6.66406V10.8307C2.1665 12.871 2.57895 13.9335 3.24576 14.5169C3.92908 15.1148 5.00868 15.3307 6.6665 15.3307H7.08317C7.29421 15.3307 7.50431 15.3971 7.67295 15.4807C7.83976 15.5634 8.023 15.6912 8.15168 15.8665L9.39984 17.5307C9.59428 17.79 9.81648 17.8807 9.99984 17.8807C10.1832 17.8807 10.4054 17.79 10.5998 17.5307L11.8498 15.8641L11.8518 15.8615C12.1032 15.5307 12.4996 15.3307 12.9165 15.3307H13.3332C14.9228 15.3307 16.0231 14.9337 16.7296 14.2272C17.4361 13.5207 17.8332 12.4203 17.8332 10.8307V6.66406C17.8332 5.07447 17.4361 3.97411 16.7296 3.26762C16.0231 2.56112 14.9228 2.16406 13.3332 2.16406H6.6665C5.07691 2.16406 3.97655 2.56112 3.27006 3.26762ZM2.56295 2.56051C3.52312 1.60034 4.92277 1.16406 6.6665 1.16406H13.3332C15.0769 1.16406 16.4766 1.60034 17.4367 2.56051C18.3969 3.52068 18.8332 4.92032 18.8332 6.66406V10.8307C18.8332 12.5745 18.3969 13.9741 17.4367 14.9343C16.4766 15.8945 15.0769 16.3307 13.3332 16.3307H12.9165C12.8172 16.3307 12.7139 16.3804 12.6487 16.4656L12.6479 16.4666L11.3998 18.1307C11.0443 18.6048 10.5415 18.8807 9.99984 18.8807C9.45819 18.8807 8.95539 18.6048 8.59984 18.1307L7.34984 16.4641L7.34543 16.4582L7.34547 16.4581L7.34544 16.4581C7.34486 16.4574 7.33607 16.4464 7.31388 16.4291C7.29159 16.4118 7.26248 16.3933 7.22881 16.3766C7.15369 16.3394 7.09713 16.3307 7.08317 16.3307H6.6665C4.991 16.3307 3.5706 16.1299 2.58725 15.2695C1.58739 14.3946 1.1665 12.9572 1.1665 10.8307V6.66406C1.1665 4.92032 1.60278 3.52068 2.56295 2.56051ZM5.33317 6.66406C5.33317 6.38792 5.55703 6.16406 5.83317 6.16406H14.1665C14.4426 6.16406 14.6665 6.38792 14.6665 6.66406C14.6665 6.94021 14.4426 7.16406 14.1665 7.16406H5.83317C5.55703 7.16406 5.33317 6.94021 5.33317 6.66406ZM5.83317 10.3307C5.55703 10.3307 5.33317 10.5546 5.33317 10.8307C5.33317 11.1069 5.55703 11.3307 5.83317 11.3307H10.8332C11.1093 11.3307 11.3332 11.1069 11.3332 10.8307C11.3332 10.5546 11.1093 10.3307 10.8332 10.3307H5.83317Z" fill="black"/>
</svg>
