<svg width="16" height="16" viewBox="0 0 16 16" fill="none" xmlns="http://www.w3.org/2000/svg">
<path d="M7.99674 1.33325V2.16659V3.83325M7.99674 14.6666V10.3006H5.99805M7.99674 5.49992V7.99992M7.99674 7.99992H8.00508M7.99674 7.99992H12.1634V6.47578M14.6634 14.6666H11.3301H10.1929M14.6717 7.99992L14.6634 6.47578V11.5773M1.33008 6.72907V7.99992H4.66341V6.72907M10.5811 10.5554H12.7354V12.8135H10.5811V10.5554ZM2.16341 4.66658H3.83008C4.05109 4.66658 4.26305 4.57879 4.41933 4.42251C4.57561 4.26623 4.66341 4.05426 4.66341 3.83325V2.16659C4.66341 1.94557 4.57561 1.73361 4.41933 1.57733C4.26305 1.42105 4.05109 1.33325 3.83008 1.33325H2.16341C1.9424 1.33325 1.73044 1.42105 1.57416 1.57733C1.41788 1.73361 1.33008 1.94557 1.33008 2.16659V3.83325C1.33008 4.05426 1.41788 4.26623 1.57416 4.42251C1.73044 4.57879 1.9424 4.66658 2.16341 4.66658ZM12.1634 4.66658H13.8301C14.0511 4.66658 14.2631 4.57879 14.4193 4.42251C14.5756 4.26623 14.6634 4.05426 14.6634 3.83325V2.16659C14.6634 1.94557 14.5756 1.73361 14.4193 1.57733C14.2631 1.42105 14.0511 1.33325 13.8301 1.33325H12.1634C11.9424 1.33325 11.7304 1.42105 11.5742 1.57733C11.4179 1.73361 11.3301 1.94557 11.3301 2.16659V3.83325C11.3301 4.05426 11.4179 4.26623 11.5742 4.42251C11.7304 4.57879 11.9424 4.66658 12.1634 4.66658ZM2.16341 14.6666H3.83008C4.05109 14.6666 4.26305 14.5788 4.41933 14.4225C4.57561 14.2662 4.66341 14.0543 4.66341 13.8332V12.1666C4.66341 11.9456 4.57561 11.7336 4.41933 11.5773C4.26305 11.421 4.05109 11.3332 3.83008 11.3332H2.16341C1.9424 11.3332 1.73044 11.421 1.57416 11.5773C1.41788 11.7336 1.33008 11.9456 1.33008 12.1666V13.8332C1.33008 14.0543 1.41788 14.2662 1.57416 14.4225C1.73044 14.5788 1.9424 14.6666 2.16341 14.6666Z" stroke="#8E8E93" stroke-linecap="round" stroke-linejoin="round"/>
</svg>
