<svg width="28" height="25" viewBox="0 0 28 25" fill="none" xmlns="http://www.w3.org/2000/svg">
<path fill-rule="evenodd" clip-rule="evenodd" d="M22.44 20.3703C22.44 21.6118 21.3683 22.6218 20.0501 22.6218H17.2703V15.7792C17.2703 15.3628 16.9332 15.0245 16.5156 15.0245H11.4843C11.0667 15.0245 10.7296 15.3628 10.7296 15.7792V22.6218H7.47181C6.1536 22.6218 5.08193 21.6118 5.08193 20.3703V10.2007L13.644 1.63738C13.8415 1.44116 14.1597 1.44116 14.3559 1.63738L22.44 9.72273V20.3703ZM12.239 22.5715H15.7609V16.5339H12.239V22.5715ZM27.1116 12.2598L15.4226 0.570741C14.6628 -0.190247 13.3371 -0.190247 12.5774 0.570741L0.888319 12.2598C0.592728 12.5554 0.592728 13.0333 0.888319 13.3277C1.18265 13.622 1.66063 13.622 1.95496 13.3277L3.57253 11.7101V20.3703C3.57253 22.4444 5.32218 24.1312 7.47181 24.1312H20.0501C22.201 24.1312 23.9494 22.4444 23.9494 20.3703V11.2321L26.045 13.3277C26.1921 13.4748 26.3846 13.5491 26.5783 13.5491C26.7707 13.5491 26.9644 13.4748 27.1116 13.3277C27.4072 13.0333 27.4072 12.5554 27.1116 12.2598Z" fill="#7B7B7B"/>
</svg>
