<?xml version="1.0" encoding="UTF-8"?>
<svg width="24px" height="28px" viewBox="0 0 24 28" version="1.1" xmlns="http://www.w3.org/2000/svg" xmlns:xlink="http://www.w3.org/1999/xlink">
    <title>ic_card</title>
    <g id="Page-1" stroke="none" stroke-width="1" fill="none" fill-rule="evenodd">
        <g id="Profile" transform="translate(-28.000000, -450.000000)">
            <g id="Group-4" transform="translate(12.000000, 240.000000)">
                <g id="Suggestion_1-Copy-2" transform="translate(0.000000, 192.000000)">
                    <g id="ic_location" transform="translate(12.000000, 16.000000)">
                        <rect id="Rectangle" x="0" y="0" width="32" height="32"></rect>
                        <path d="M16,16.5013288 C14.3356135,16.5013288 12.9807048,15.1464201 12.9807048,13.4820336 C12.9807048,11.8176472 14.3356135,10.4627384 16,10.4627384 C17.6643865,10.4627384 19.0192952,11.8176472 19.0192952,13.4820336 C19.0192952,15.1464201 17.6643865,16.5013288 16,16.5013288 M16,8.95309085 C13.5040493,8.95309085 11.4710572,10.9848249 11.4710572,13.4820336 C11.4710572,15.9792423 13.5040493,18.0109764 16,18.0109764 C18.4959507,18.0109764 20.5289428,15.9792423 20.5289428,13.4820336 C20.5289428,10.9848249 18.4959507,8.95309085 16,8.95309085 M22.8361875,20.6742464 L16,27.5104339 L9.16381249,20.6742464 C5.39472567,16.9051595 5.39472567,10.7722162 9.16381249,7.00312937 C11.0483559,5.11732792 13.5229199,4.17505622 16,4.17505622 C18.4758221,4.17505622 20.9516441,5.11858596 22.8361875,7.00312937 C26.6052743,10.7722162 26.6052743,16.9051595 22.8361875,20.6742464 M23.9042632,5.9350537 C19.5451558,1.57720432 12.4548442,1.57720432 8.09573682,5.9350537 C3.73914548,10.2929031 3.73914548,17.3844726 8.09573682,21.742322 L15.4665912,29.1119184 C15.6137818,29.260367 15.8075199,29.3333333 16,29.3333333 C16.1924801,29.3333333 16.3862182,29.260367 16.5334088,29.1119184 L23.9042632,21.742322 C28.2608545,17.3844726 28.2608545,10.2929031 23.9042632,5.9350537" id="Location-point" fill="#1A1A1A"></path>
                    </g>
                </g>
            </g>
        </g>
    </g>
</svg>