<svg width="135" height="115" viewBox="0 0 135 115" fill="none" xmlns="http://www.w3.org/2000/svg">
<path d="M91.4383 5.3498C91.4383 5.3498 73.0409 28.5176 43.6051 14.6982C14.1693 0.878747 -15.2666 38.2726 10.0809 61.034C35.4285 83.7954 10.624 96.3027 27.8442 110.252C47.416 126.107 64.4555 93.9568 79.991 101.273C114.279 117.42 139.68 111.028 133.957 92.331C123.91 59.5111 111.062 57.376 120.874 40.3049C130.686 23.2337 109.031 -12.2612 91.4383 5.3498Z" fill="#E8E8E8"/>
<path d="M81.4223 69.4269L79.9689 77.1847L73.0461 114.063L60.5757 111.748L68.5716 69.1472L68.9518 67.1172L81.4223 69.4269Z" fill="#989898"/>
<path d="M112.134 50.8744L107.834 73.7935C107.822 73.8607 107.796 73.9248 107.758 73.982C107.721 74.0393 107.672 74.0887 107.616 74.1273C107.559 74.1659 107.495 74.1931 107.428 74.2072C107.361 74.2213 107.291 74.2221 107.224 74.2095L46.8118 63.0076L53.9222 25.1055L99.7966 33.6119C108.111 35.1533 113.634 42.8804 112.134 50.8744Z" fill="#BCBCBC"/>
<path d="M66.8254 43.183L62.5591 65.9243L30.8486 60.0444L35.1149 37.3031C36.6857 28.9301 45.058 23.4585 53.8144 25.0822C62.5708 26.7058 68.3962 34.8098 66.8254 43.183Z" fill="#989898"/>
<path d="M81.588 53.814C79.2512 53.3807 77.7094 51.1228 78.1495 48.778C78.5895 46.4333 80.8461 44.8792 83.1829 45.3128C83.9278 45.4519 84.6223 45.7847 85.1959 46.2773C85.7695 46.7699 86.2016 47.4047 86.4483 48.1172L115.966 53.5906L115.169 57.8413L85.6509 52.3679C85.1625 52.9442 84.5292 53.3816 83.8156 53.6356C83.1019 53.8896 82.3333 53.9512 81.588 53.814Z" fill="#858585"/>
<path d="M65.7735 43.6017L61.6167 65.7585L31.7444 60.2194L35.9014 38.0625C37.4317 29.9048 45.3598 24.5313 53.6088 26.0609C61.8577 27.5905 67.3038 35.4439 65.7735 43.6017Z" fill="#858585"/>
<path d="M82.4249 51.6659C83.626 51.6659 84.5996 50.6979 84.5996 49.5038C84.5996 48.3098 83.626 47.3418 82.4249 47.3418C81.2239 47.3418 80.2502 48.3098 80.2502 49.5038C80.2502 50.6979 81.2239 51.6659 82.4249 51.6659Z" fill="white"/>
<path d="M116.307 53.5758L113.7 67.4745C113.689 67.5344 113.654 67.5874 113.603 67.6218C113.553 67.6562 113.491 67.6693 113.431 67.6581L106.576 66.3872C106.564 66.385 106.554 66.3781 106.547 66.3682C106.54 66.3583 106.538 66.3461 106.54 66.3343L109.181 52.2544C109.184 52.2426 109.19 52.2322 109.2 52.2254C109.21 52.2186 109.223 52.216 109.234 52.2182L116.271 53.5229C116.283 53.5251 116.293 53.532 116.3 53.5419C116.307 53.5518 116.31 53.564 116.307 53.5758Z" fill="#989898"/>
<path d="M41.6298 52.2668C41.9184 54.3777 44.2483 56.8867 44.2483 56.8867C40.6981 57.1368 38.7754 55.1408 37.948 53.9279C36.9252 54.2217 35.8739 54.4072 34.8118 54.4812C27.5232 54.9948 21.2488 50.264 20.7957 43.9093C20.3426 37.5546 25.8831 31.9911 33.1717 31.4776C40.4603 30.9641 46.7342 35.6946 47.1873 42.0494C47.482 46.1829 45.2385 49.9823 41.6298 52.2668Z" fill="white"/>
<path d="M25.9571 43.4559C26.6356 43.4559 27.1857 42.7723 27.1857 41.9291C27.1857 41.0859 26.6356 40.4023 25.9571 40.4023C25.2786 40.4023 24.7285 41.0859 24.7285 41.9291C24.7285 42.7723 25.2786 43.4559 25.9571 43.4559Z" fill="#858585"/>
<path d="M40.0857 43.4559C40.7643 43.4559 41.3143 42.7723 41.3143 41.9291C41.3143 41.0859 40.7643 40.4023 40.0857 40.4023C39.4072 40.4023 38.8572 41.0859 38.8572 41.9291C38.8572 42.7723 39.4072 43.4559 40.0857 43.4559Z" fill="#858585"/>
<path d="M37.411 49.562C37.374 49.562 37.3375 49.5533 37.3051 49.5368C37.2728 49.5202 37.2455 49.4963 37.2259 49.4674C37.2144 49.4506 36.0209 47.7495 33.247 47.5363C32.0924 47.4475 30.9968 47.7442 29.9917 48.4183C29.5434 48.7152 29.1452 49.0718 28.81 49.4763C28.7767 49.5197 28.7261 49.549 28.6694 49.5581C28.6127 49.5671 28.5544 49.5551 28.5072 49.5246C28.46 49.4941 28.4279 49.4476 28.4177 49.3953C28.4076 49.343 28.4202 49.2892 28.453 49.2455C28.4713 49.2213 28.9098 48.6493 29.7223 48.1015C30.8023 47.3733 32.0337 47.0394 33.2831 47.1352C36.2839 47.366 37.5435 49.1772 37.5954 49.2542C37.6161 49.2846 37.6275 49.3196 37.6285 49.3555C37.6296 49.3914 37.6202 49.4269 37.6013 49.4583C37.5825 49.4897 37.5549 49.5158 37.5214 49.5341C37.4879 49.5523 37.4497 49.562 37.4108 49.562L37.411 49.562Z" fill="#858585"/>
<path d="M62.5898 65.9381C62.2598 66.7687 56.2239 91.512 36.6918 87.8903C15.2736 84.2852 30.7659 60.0371 30.7659 60.0371L62.5898 65.9381Z" fill="#BCBCBC"/>
<path d="M81.4222 69.4269L79.9688 77.1847L68.5715 69.1472L68.9517 67.1172L81.4222 69.4269Z" fill="#858585"/>
</svg>
