<?xml version="1.0" encoding="UTF-8"?>
<svg width="28px" height="25px" viewBox="0 0 28 25" version="1.1" xmlns="http://www.w3.org/2000/svg" xmlns:xlink="http://www.w3.org/1999/xlink">
    <title>ic_card</title>
    <g id="Page-1" stroke="none" stroke-width="1" fill="none" fill-rule="evenodd">
        <g id="Profile" transform="translate(-26.000000, -580.000000)">
            <g id="Group-4" transform="translate(12.000000, 240.000000)">
                <g id="Suggestion_1-Copy-3" transform="translate(0.000000, 320.000000)">
                    <g id="ic_customer_care" transform="translate(12.000000, 16.000000)">
                        <path d="M27.8930282,15.9308678 C27.8930282,17.0780666 26.9596528,18.011442 25.8112528,18.011442 L24.9847891,18.011442 C24.5871736,18.011442 24.2640359,18.3345796 24.2640359,18.7321951 L24.2892623,21.7125096 L20.9197411,18.3285734 L20.9197411,13.1175278 C20.9197411,11.175098 19.3400904,9.59544724 17.3976606,9.59544724 L12.520564,9.59544724 L12.520564,7.52448308 C12.520564,6.37728426 13.4539394,5.44390888 14.6035407,5.44390888 L25.8112528,5.44390888 C26.9596528,5.44390888 27.8930282,6.37728426 27.8930282,7.52448308 L27.8930282,15.9308678 Z M19.479436,21.5239125 C19.479436,22.6711113 18.5460606,23.6056879 17.3976606,23.6056879 L11.6953016,23.6056879 C11.5031007,23.6056879 11.3205099,23.6825683 11.1847681,23.8159076 L7.73596408,27.3151643 L7.73596408,24.3264411 C7.73596408,23.9288256 7.4128264,23.6056879 7.0152109,23.6056879 L6.1899485,23.6056879 C5.04154842,23.6056879 4.10697179,22.6711113 4.10697179,21.5239125 L4.10697179,13.1175278 C4.10697179,11.970329 5.04154842,11.0369536 6.1899485,11.0369536 L17.3976606,11.0369536 C18.5460606,11.0369536 19.479436,11.970329 19.479436,13.1175278 L19.479436,21.5239125 Z M25.8112528,4 L14.6035407,4 C12.6599096,4 11.0802589,5.58205325 11.0802589,7.52448308 L11.0802589,9.59544724 L6.1899485,9.59544724 C4.2463174,9.59544724 2.66666667,11.175098 2.66666667,13.1175278 L2.66666667,21.5239125 C2.66666667,23.4663423 4.2463174,25.0483956 6.1899485,25.0483956 L6.29565896,25.0483956 L6.29565896,27.3151643 C6.29565896,27.8917669 6.63921798,28.4083067 7.17257534,28.6281364 C7.34915987,28.701413 7.53535445,28.7374506 7.71794525,28.7374506 C8.08793189,28.7374506 8.44830848,28.5933 8.72219469,28.320615 L11.9944142,25.0483956 L17.3976606,25.0483956 C19.3400904,25.0483956 20.9197411,23.4663423 20.9197411,21.5239125 L20.9197411,20.3719086 L23.2778053,22.7395829 C23.5516915,23.0050603 23.9108669,23.1444059 24.2760485,23.1444059 C24.4646456,23.1444059 24.6568464,23.107167 24.8370347,23.0302866 C25.3727946,22.8032494 25.7055423,22.3011247 25.7055423,21.7161133 L25.7055423,19.4541496 L25.8112528,19.4541496 C27.7536826,19.4541496 29.3333333,17.8732976 29.3333333,15.9308678 L29.3333333,7.52448308 C29.3333333,5.58205325 27.7536826,4 25.8112528,4 L25.8112528,4 Z" id="Conversation" fill="#1A1A1A"></path>
                        <rect id="Rectangle" x="0" y="0" width="32" height="32"></rect>
                    </g>
                </g>
            </g>
        </g>
    </g>
</svg>