<svg width="25" height="24" viewBox="0 0 25 24" fill="none" xmlns="http://www.w3.org/2000/svg">
<path d="M5.33855 7.57893L10.6096 3.72726C11.8218 2.72444 13.8422 2.7913 15.0994 3.72726L20.2177 7.58848C21.1067 8.24747 21.8341 9.7248 21.8341 10.8804V17.8363C21.8341 20.0425 20.1369 21.8571 18.0537 21.8571H15.5688C15.0165 21.8571 14.5688 21.4094 14.5688 20.8571V16C14.5688 15.4477 14.121 15 13.5688 15H12.1402C11.5879 15 11.1402 15.4477 11.1402 16V20.8571C11.1402 21.4094 10.6925 21.8571 10.1402 21.8571H7.65529C5.57202 21.8571 3.87488 20.0425 3.87488 17.8268V10.7497C3.87488 9.67052 4.53039 8.24747 5.33855 7.57893Z" stroke="#8E8E93" stroke-linecap="round" stroke-linejoin="round"/>
</svg>
