<svg width="20" height="20" viewBox="0 0 20 20" fill="none" xmlns="http://www.w3.org/2000/svg">
<path fill-rule="evenodd" clip-rule="evenodd" d="M5.51657 7.42502C5.51657 5.41509 6.8396 3.70965 8.6609 3.13345C9.29538 2.95595 9.97742 2.90625 10.6961 2.99608L10.6979 2.99631C10.9108 3.02211 11.1205 3.06508 11.3275 3.12118C13.1678 3.68621 14.5166 5.40659 14.5166 7.42502V9.83335C14.5166 10.1476 14.5817 10.5155 14.674 10.8521C14.7664 11.1892 14.8971 11.5346 15.0501 11.7999L15.0501 11.7999L15.0549 11.8079L16.0128 13.3989L16.0131 13.3994C16.3989 14.0429 16.0868 14.8765 15.3846 15.1086L15.3831 15.1091C11.8946 16.2747 8.13119 16.2748 4.64262 15.1094C4.22978 14.9694 3.97999 14.7064 3.874 14.4201C3.76817 14.1343 3.78652 13.7737 4.01159 13.3996L4.01167 13.3995L4.96992 11.8079L4.97105 11.8061C5.13041 11.5387 5.26396 11.1913 5.35773 10.8535C5.45146 10.5159 5.51657 10.1478 5.51657 9.83335V7.42502ZM15.5166 7.42502C15.5166 5.06898 14.017 3.04772 11.9248 2.26807C11.5636 1.58182 10.8437 1.11661 10.0164 1.11661C9.19023 1.11661 8.4711 1.58065 8.10946 2.26547C6.01319 3.04198 4.51657 5.06082 4.51657 7.42502V9.83335C4.51657 10.0273 4.47336 10.3008 4.39417 10.5861C4.31516 10.8707 4.21144 11.1271 4.11262 11.2931L4.1121 11.294L3.15489 12.8838L3.15482 12.8839C2.78829 13.4931 2.71499 14.1699 2.93623 14.7674C3.15725 15.3643 3.653 15.8302 4.32294 16.057L4.3248 16.0576C5.25007 16.3667 6.19364 16.5984 7.14634 16.7527C7.29225 17.2312 7.55418 17.6615 7.8963 18.0036C8.43595 18.5432 9.19486 18.8834 10.0165 18.8834C11.3662 18.8834 12.5139 17.9821 12.888 16.7512C13.8372 16.5969 14.7773 16.3658 15.6993 16.0578C17.0131 15.623 17.584 14.0739 16.8703 12.8844L16.8699 12.8838L15.9142 11.2964C15.8179 11.1283 15.7161 10.8712 15.6384 10.5876C15.5598 10.3012 15.5166 10.0274 15.5166 9.83335V7.42502ZM11.7363 16.9003C10.5925 17.0108 9.44083 17.0111 8.29697 16.9011C8.38277 17.046 8.48598 17.1791 8.6034 17.2965C8.96375 17.6568 9.47151 17.8834 10.0165 17.8834C10.745 17.8834 11.3865 17.4874 11.7363 16.9003Z" fill="black"/>
</svg>
