<svg width="145" height="160" viewBox="0 0 145 160" fill="none" xmlns="http://www.w3.org/2000/svg">
<path d="M137.559 58.103C137.559 58.103 114.983 74.5842 135.158 116.599C153.076 153.913 103.792 164.49 83.5723 158.379C57.3795 150.462 45.3157 114.735 23.8641 123.575C2.41253 132.415 -13.1251 81.2927 18.2978 66.1256C57.3872 47.2586 34.9247 31.8608 39.8162 15.6947C43.3269 4.09214 78.9621 -10.883 95.243 11.7856C108.944 30.8603 117.084 25.316 124.335 23.6605C134.794 21.2731 155.24 41.0366 137.559 58.103Z" fill="#DEE9FF" fill-opacity="0.4"/>
<path d="M137.829 72.8203L137.674 73.7966C137.545 74.6098 137.103 75.3379 136.445 75.8205C135.787 76.3032 134.966 76.501 134.164 76.3703L134.094 76.3589C133.419 76.2488 132.726 76.3713 132.127 76.7068C131.528 77.0423 131.058 77.5715 130.79 78.2101L109.073 130.009C108.447 131.506 107.344 132.747 105.94 133.534C104.537 134.321 102.914 134.609 101.331 134.351L40.7652 124.482C39.1465 124.222 37.6648 123.407 36.5681 122.172C35.4714 120.937 34.8261 119.357 34.7401 117.697L31.7326 62.1566C31.6943 61.4486 31.4182 60.7753 30.9503 60.2484C30.4824 59.7216 29.8508 59.3729 29.1605 59.2605C28.7635 59.1958 28.3829 59.0524 28.0404 58.8385C27.698 58.6246 27.4005 58.3444 27.1648 58.0139C26.9292 57.6834 26.76 57.3091 26.667 56.9123C26.574 56.5155 26.559 56.104 26.6228 55.7013L26.7774 54.7251C26.8412 54.3224 26.9826 53.9364 27.1935 53.5892C27.4044 53.2419 27.6806 52.9401 28.0065 52.7011C28.3324 52.4621 28.7015 52.2906 29.0927 52.1962C29.484 52.1019 29.8897 52.0866 30.2868 52.1513L55.9428 56.3318C56.3368 56.396 56.7407 56.3434 57.106 56.1802C57.4712 56.017 57.7821 55.7502 58.0013 55.412L75.9201 27.7602C76.1572 27.3924 76.4942 27.1021 76.8904 26.9242C77.2866 26.7463 77.7251 26.6885 78.1529 26.7577C78.4636 26.8064 78.7602 26.9229 79.0223 27.099C79.2698 27.2631 79.4829 27.4752 79.6495 27.7229C79.8161 27.9707 79.9329 28.2494 79.9932 28.5429C80.0536 28.8365 80.0563 29.1393 80.0012 29.4339C79.9461 29.7286 79.8342 30.0093 79.6721 30.2601L63.8781 54.6271C63.6883 54.92 63.5737 55.2564 63.545 55.6056C63.5162 55.9549 63.5742 56.3059 63.7135 56.6267C63.8528 56.9474 64.0691 57.2277 64.3426 57.4419C64.6161 57.6562 64.9381 57.7975 65.2794 57.8532L99.4254 63.4167C99.7667 63.4723 100.116 63.4404 100.442 63.3238C100.768 63.2072 101.06 63.0096 101.292 62.7492C101.523 62.4887 101.687 62.1736 101.767 61.8327C101.848 61.4918 101.843 61.1358 101.753 60.7973L94.2671 32.6384C94.116 32.0534 94.1986 31.4317 94.497 30.9082C94.7954 30.3847 95.2854 30.0018 95.8606 29.8427C96.1639 29.7587 96.4815 29.7423 96.7916 29.7948C97.2193 29.865 97.6179 30.0592 97.9392 30.354C98.2605 30.6488 98.4908 31.0316 98.6024 31.4562L107.078 63.4089C107.182 63.7997 107.395 64.1518 107.691 64.4229C107.988 64.6939 108.355 64.8722 108.749 64.9364L135.29 69.2611C135.688 69.3258 136.068 69.4692 136.411 69.6831C136.753 69.8969 137.051 70.1771 137.286 70.5076C137.522 70.8381 137.691 71.2125 137.784 71.6093C137.877 72.0061 137.892 72.4176 137.829 72.8203V72.8203Z" fill="#418DF9" fill-opacity="0.24"/>
<path d="M57.4368 65.2118L50.7485 64.1219C50.6943 64.1131 50.6433 64.1505 50.6346 64.2055L42.6634 114.519C42.6547 114.574 42.6916 114.625 42.7457 114.634L49.434 115.724C49.4882 115.733 49.5392 115.696 49.5479 115.641L57.5192 65.3273C57.5279 65.2723 57.491 65.2206 57.4368 65.2118Z" fill="#F2F6FF"/>
<path d="M112.802 74.0733L106.114 72.9834C106.06 72.9746 106.009 73.012 106 73.0669L98.0287 123.38C98.02 123.435 98.0568 123.487 98.111 123.496L104.799 124.586C104.853 124.594 104.904 124.557 104.913 124.502L112.884 74.1888C112.893 74.1338 112.856 74.0821 112.802 74.0733Z" fill="#F2F6FF"/>
<path d="M71.2099 67.4711L64.5239 66.3787C64.4697 66.3699 64.4187 66.4073 64.41 66.4622L56.4207 116.758C56.412 116.813 56.4488 116.865 56.503 116.874L63.189 117.966C63.2431 117.975 63.2941 117.938 63.3029 117.883L71.2922 67.5866C71.3009 67.5316 71.264 67.4799 71.2099 67.4711Z" fill="#F2F6FF"/>
<path d="M85.1321 69.5642L78.4438 68.4743C78.3896 68.4655 78.3386 68.5029 78.3299 68.5578L70.3587 118.871C70.35 118.926 70.3869 118.978 70.4411 118.987L77.1294 120.076C77.1835 120.085 77.2345 120.048 77.2432 119.993L85.2144 69.6797C85.2231 69.6247 85.1863 69.573 85.1321 69.5642Z" fill="#F2F6FF"/>
<path d="M98.968 71.8186L92.2798 70.7287C92.2256 70.7199 92.1746 70.7573 92.1659 70.8123L84.1947 121.126C84.186 121.181 84.2228 121.232 84.277 121.241L90.9653 122.331C91.0195 122.34 91.0705 122.302 91.0792 122.247L99.0504 71.9341C99.0591 71.8791 99.0222 71.8274 98.968 71.8186Z" fill="#F2F6FF"/>
</svg>
