<?xml version="1.0" encoding="UTF-8"?>
<svg width="26px" height="28px" viewBox="0 0 26 28" version="1.1" xmlns="http://www.w3.org/2000/svg" xmlns:xlink="http://www.w3.org/1999/xlink">
    <title>ic_card</title>
    <g id="Page-1" stroke="none" stroke-width="1" fill="none" fill-rule="evenodd">
        <g id="Profile" transform="translate(-27.000000, -514.000000)">
            <g id="Group-4" transform="translate(12.000000, 240.000000)">
                <g id="Suggestion_1-Copy-5" transform="translate(0.000000, 256.000000)">
                    <g id="ic_settings" transform="translate(12.000000, 16.000000)">
                        <rect id="Rectangle" x="0" y="0" width="32" height="32"></rect>
                        <path d="M16,20.0405959 C13.7710939,20.0405959 11.9601076,18.2282026 11.9601076,15.9992964 C11.9601076,13.7717974 13.7710939,11.9594041 16,11.9594041 C18.2289061,11.9594041 20.0398924,13.7717974 20.0398924,15.9992964 C20.0398924,18.2282026 18.2289061,20.0405959 16,20.0405959 M16,10.2708388 C12.8409758,10.2708388 10.2701353,12.8402723 10.2701353,15.9992964 C10.2701353,19.1597277 12.8409758,21.7291612 16,21.7291612 C19.1590242,21.7291612 21.7298647,19.1597277 21.7298647,15.9992964 C21.7298647,12.8402723 19.1590242,10.2708388 16,10.2708388 M27.0840237,20.0814029 L25.0816668,23.5556259 C24.9536172,23.7779537 24.6707825,23.8567534 24.4484548,23.7272967 L23.0652384,22.9308568 C22.3602624,22.524194 21.4850228,22.5438939 20.8349252,22.9829209 C20.4718836,23.2277628 20.0835136,23.4458692 19.6852937,23.6287971 C18.9521749,23.9665101 18.4765624,24.7249573 18.4765624,25.5622043 L18.4765624,27.1790055 C18.4765624,27.4351046 18.2668988,27.6433609 18.0122069,27.6433609 L14.0018645,27.6433609 C13.7457654,27.6433609 13.537509,27.4351046 13.537509,27.1790055 L13.537509,25.5636114 C13.537509,24.7249573 13.0618965,23.965103 12.3245563,23.6273899 C11.9193007,23.4430549 11.5281164,23.2249486 11.1622606,22.9786995 C10.8245475,22.7521503 10.4263275,22.6395793 10.022479,22.6395793 C9.64958753,22.6395793 9.27247463,22.7366718 8.93476158,22.9308568 L7.55295235,23.7272967 C7.33203173,23.8539391 7.04638278,23.7765465 6.91833325,23.5570331 L4.91597629,20.0814029 C4.7893339,19.8604823 4.86531933,19.5748333 5.08764709,19.4481909 L6.27949273,18.7601006 C7.01401861,18.335145 7.43053137,17.517598 7.33906742,16.6761297 C7.30388898,16.3693736 7.29122474,16.0583962 7.29122474,15.738976 C7.29122474,15.2675848 7.32218177,14.8679577 7.38831724,14.5161733 C7.45445271,14.1643889 7.29122474,13.808383 6.9802473,13.6282694 L5.08764709,12.5377377 C4.86672647,12.4096881 4.7893339,12.1254463 4.91738343,11.9031186 L6.91692611,8.43311699 C6.97743303,8.32617452 7.07874694,8.24878195 7.19694651,8.21782492 C7.31936749,8.18264647 7.44460275,8.20093926 7.55154521,8.26426046 L8.5548344,8.84540833 C9.27388177,9.26614251 10.1927427,9.20282131 10.8934973,8.69203032 C11.3170457,8.38105289 11.7729583,8.11088245 12.2471637,7.88714756 C13.0421965,7.51284893 13.537509,6.75721598 13.537509,5.91715477 L13.537509,4.82099449 C13.537509,4.56348829 13.7457654,4.35663905 14.0018645,4.35663905 L18.0122069,4.35663905 C18.2668988,4.35663905 18.4765624,4.56348829 18.4765624,4.82099449 L18.4765624,5.91996904 C18.4765624,6.75721598 18.9690606,7.51144179 19.7626862,7.88714756 C20.2326702,8.10947531 20.6829543,8.37964575 21.1065027,8.69062319 C21.8086645,9.20282131 22.7247111,9.26614251 23.4437585,8.84681547 L24.4484548,8.26426046 C24.5553973,8.20093926 24.6792254,8.18264647 24.8030535,8.21782492 C24.9212531,8.24878195 25.022567,8.32617452 25.0830739,8.43311699 L27.0826166,11.9045257 C27.2106661,12.1254463 27.1332735,12.4096881 26.9123529,12.5377377 L25.0197527,13.6282694 C24.7087753,13.808383 24.5455473,14.1643889 24.6116828,14.5161733 C24.6778182,14.8679577 24.7087753,15.2675848 24.7087753,15.738976 C24.7087753,16.0583962 24.696111,16.3693736 24.6595254,16.6775368 C24.5694686,17.517598 24.9859814,18.335145 25.7205073,18.7601006 L26.91376,19.4481909 C27.1346807,19.5748333 27.2106661,19.8604823 27.0840237,20.0814029 M27.7566355,17.9861749 L26.5676042,17.2980845 C26.4085976,17.2066206 26.3199479,17.0349498 26.3396479,16.8604647 C26.3804549,16.4932018 26.4001548,16.1217174 26.4001548,15.738976 C26.4001548,15.4054843 26.3860834,15.0973212 26.3551264,14.8074508 L27.7552284,14.0011609 C28.7838461,13.4073488 29.1384448,12.0888607 28.5460398,11.0616502 L26.5479042,7.59164864 C26.259441,7.09211475 25.7950856,6.73470177 25.237859,6.58554518 C24.6792254,6.43638858 24.0994846,6.51378115 23.6013579,6.80365152 L22.5952544,7.38761367 C22.427805,7.48611331 22.23362,7.42138498 22.1055705,7.32851389 C21.5961867,6.95562239 21.0516244,6.62916645 20.485955,6.36181028 C20.3311699,6.28723198 20.1651276,6.13244684 20.1651276,5.91996904 L20.1651276,4.82099449 C20.1651276,3.63337027 19.198424,2.66666667 18.0122069,2.66666667 L14.0018645,2.66666667 C12.8142402,2.66666667 11.8489438,3.63337027 11.8489438,4.82099449 L11.8489438,5.91715477 C11.8489438,6.13244684 11.6829015,6.28723198 11.5267092,6.36040314 C10.9568185,6.63057358 10.4080348,6.95562239 9.89865091,7.32710675 C9.76919424,7.41997784 9.57078782,7.48329903 9.40333843,7.38620653 L8.39864211,6.80365152 C7.90051536,6.51378115 7.31796035,6.43779572 6.76214096,6.58554518 C6.20491443,6.73470177 5.74055899,7.09211475 5.45209576,7.59164864 L3.45396021,11.0602431 C2.86155524,12.0888607 3.21615394,13.4073488 4.2447716,14.0011609 L5.64487362,14.8074508 C5.61391659,15.0973212 5.59984521,15.4054843 5.59984521,15.738976 C5.59984521,16.1217174 5.61954514,16.4932018 5.66035214,16.8604647 C5.68005206,17.0349498 5.59140239,17.2066206 5.43239583,17.2980845 L4.24336447,17.9847677 C3.21615394,18.5771727 2.86155524,19.8956607 3.45396021,20.9242784 L5.45491003,24.3999085 C6.04872214,25.4271191 7.3643959,25.7817178 8.39582784,25.1907199 L9.77482279,24.39428 C9.92679366,24.3084446 10.1055001,24.3042232 10.2208854,24.3802086 C10.6627267,24.6771147 11.1341178,24.9402494 11.6223946,25.1639843 C11.7574798,25.2258984 11.8489438,25.3863121 11.8489438,25.5636114 L11.8489438,27.1790055 C11.8489438,28.3666297 12.8142402,29.3333333 14.0018645,29.3333333 L18.0122069,29.3333333 C19.198424,29.3333333 20.1651276,28.3666297 20.1651276,27.1790055 L20.1651276,25.5622043 C20.1651276,25.3863121 20.2537773,25.2258984 20.3916768,25.1639843 C20.8729179,24.9416566 21.3400876,24.6785218 21.7777074,24.3830229 C21.895907,24.3042232 22.0746135,24.3084446 22.2251772,24.39428 L23.6055793,25.1907199 C24.6356041,25.7831249 25.9512779,25.4257119 26.54509,24.3985014 L28.5460398,20.9242784 C29.1384448,19.8956607 28.7838461,18.5771727 27.7566355,17.9861749" id="Settings" fill="#1A1A1A"></path>
                    </g>
                </g>
            </g>
        </g>
    </g>
</svg>