<svg width="137" height="152" viewBox="0 0 137 152" fill="none" xmlns="http://www.w3.org/2000/svg">
<path d="M129.747 51.1586C129.747 51.1586 109.108 68.5667 131.083 107.458C150.6 141.997 103.963 155.624 84.1789 151.188C58.5508 145.441 44.751 112.012 24.7152 122.009C4.67933 132.006 -13.4123 84.0486 15.7993 67.2768C52.1375 46.4133 29.6232 33.2244 33.3116 17.3671C35.9585 5.98627 69.2234 -10.8982 86.258 9.70315C100.592 27.0388 108.059 21.1441 114.915 19.0437C124.803 16.0142 145.654 33.5345 129.747 51.1586Z" fill="#DEE9FF" fill-opacity="0.4"/>
<path d="M108.87 25.6316L64.3364 18.3257C61.0702 17.7899 57.9887 20.0051 57.4537 23.2737L42.0573 117.342C41.5223 120.61 43.7365 123.694 47.0027 124.23L91.5362 131.536C94.8024 132.072 97.8839 129.856 98.4189 126.588L113.815 32.5201C114.35 29.2515 112.136 26.1675 108.87 25.6316Z" fill="#77ABFC"/>
<path d="M107.406 28.2801L64.8786 21.3067C62.701 20.9496 60.6465 22.4266 60.2897 24.6056L45.1621 116.986C44.8053 119.165 46.2813 121.221 48.4588 121.578L90.9861 128.552C93.1636 128.909 95.2181 127.432 95.5749 125.253L110.703 32.872C111.059 30.693 109.583 28.6371 107.406 28.2801Z" fill="#BFD5FF"/>
<path d="M132.75 18.2882C129.515 16.9357 127.229 18.2332 126.688 19.5281C126.298 20.4635 126.908 21.2257 127.555 21.4963C128.849 22.0372 129.093 19.9702 131.537 20.9921C132.736 21.493 133.473 22.4214 133.013 23.5246C132.472 24.8197 130.82 25.0021 129.749 25.3429C128.803 25.6519 127.482 26.2546 126.621 28.3169C126.1 29.5639 126.286 30.0639 127.268 30.4747C128.442 30.9655 128.902 30.5382 129.092 30.0825C129.613 28.8354 129.937 28.1259 131.686 27.6458C132.543 27.4127 135.261 26.6334 136.202 24.3792C137.143 22.125 135.817 19.5706 132.75 18.2882Z" fill="#77ABFC"/>
<path d="M126.601 32.1383C126.113 31.9406 125.567 31.9436 125.081 32.1466C124.595 32.3496 124.208 32.7363 124.005 33.2226C123.803 33.709 123.799 34.2559 123.997 34.7446C124.194 35.2334 124.575 35.6246 125.059 35.8333C125.548 36.0346 126.096 36.0341 126.585 35.8317C127.073 35.6294 127.461 35.2417 127.665 34.7535C127.869 34.2653 127.871 33.7161 127.672 33.2261C127.473 32.736 127.087 32.345 126.601 32.1383Z" fill="#77ABFC"/>
<path d="M71.904 61.2807C72.196 59.4823 71.6772 57.9017 70.7453 57.7502C69.8135 57.5987 68.8214 58.9337 68.5295 60.7321C68.2375 62.5304 68.7563 64.1111 69.6881 64.2626C70.62 64.414 71.6121 63.079 71.904 61.2807Z" fill="white"/>
<path d="M91.3357 64.4748C91.6305 62.6586 91.1141 61.0635 90.1823 60.912C89.2504 60.7605 88.256 62.1101 87.9611 63.9263C87.6663 65.7425 88.1827 67.3376 89.1145 67.4891C90.0464 67.6406 91.0409 66.2911 91.3357 64.4748Z" fill="white"/>
<path d="M83.4037 80.1289C83.336 80.1291 83.2689 80.1153 83.2066 80.0886C83.1443 80.0618 83.0882 80.0227 83.0416 79.9734L82.3388 79.233C81.2113 78.0485 79.7262 77.2675 78.1119 77.0102C76.4975 76.7528 74.8434 77.0332 73.4039 77.8084L72.506 78.2936C72.4482 78.3247 72.385 78.3442 72.3197 78.351C72.2545 78.3577 72.1885 78.3515 72.1257 78.3327C72.0628 78.3139 72.0043 78.2829 71.9534 78.2415C71.9025 78.2 71.8603 78.149 71.8292 78.0912C71.798 78.0335 71.7785 77.9702 71.7718 77.9049C71.7651 77.8396 71.7713 77.7736 71.7901 77.7107C71.8088 77.6478 71.8398 77.5892 71.8812 77.5383C71.9226 77.4874 71.9736 77.4452 72.0313 77.414L72.9293 76.9288C74.5619 76.0496 76.438 75.7315 78.2689 76.0234C80.0998 76.3153 81.7842 77.2011 83.0629 78.5445L83.7657 79.285C83.833 79.3558 83.878 79.4449 83.8952 79.5411C83.9124 79.6373 83.901 79.7364 83.8625 79.8262C83.824 79.916 83.76 79.9926 83.6784 80.0463C83.5969 80.1001 83.5014 80.1288 83.4037 80.1288V80.1289Z" fill="white"/>
</svg>
