<?xml version="1.0" encoding="UTF-8"?>
<svg width="28px" height="19px" viewBox="0 0 28 19" version="1.1" xmlns="http://www.w3.org/2000/svg" xmlns:xlink="http://www.w3.org/1999/xlink">
    <title>ic_card</title>
    <g id="Page-1" stroke="none" stroke-width="1" fill="none" fill-rule="evenodd">
        <g id="Profile" transform="translate(-26.000000, -390.000000)">
            <g id="Group-4" transform="translate(12.000000, 240.000000)">
                <g id="Suggestion_1" transform="translate(0.000000, 128.000000)">
                    <g id="ic_card" transform="translate(12.000000, 16.000000)">
                        <path d="M20.2775603,19.9213799 C20.2775603,19.5037502 20.615941,19.1666274 21.0323128,19.1666274 L23.5481548,19.1666274 C23.9645266,19.1666274 24.3016494,19.5037502 24.3016494,19.9213799 C24.3016494,20.3390097 23.9645266,20.6761325 23.5481548,20.6761325 L21.0323128,20.6761325 C20.615941,20.6761325 20.2775603,20.3390097 20.2775603,19.9213799 L20.2775603,19.9213799 Z M27.8250861,11.4882777 L4.17617183,11.4882777 L4.17617183,9.93726119 C4.17617183,8.9661462 4.9661462,8.17491391 5.93726119,8.17491391 L26.0639967,8.17491391 C27.0338538,8.17491391 27.8250861,8.9661462 27.8250861,9.93726119 L27.8250861,11.4882777 Z M27.8250861,21.257292 C27.8250861,22.228407 27.0338538,23.0196393 26.0639967,23.0196393 L5.93726119,23.0196393 C4.9661462,23.0196393 4.17617183,22.228407 4.17617183,21.257292 L4.17617183,12.9977829 L27.8250861,12.9977829 L27.8250861,21.257292 Z M26.0639967,6.66666667 L5.93726119,6.66666667 C4.13340252,6.66666667 2.66666667,8.13340252 2.66666667,9.93726119 L2.66666667,21.257292 C2.66666667,23.0611507 4.13340252,24.5278865 5.93726119,24.5278865 L26.0639967,24.5278865 C27.8665975,24.5278865 29.3333333,23.0611507 29.3333333,21.257292 L29.3333333,9.93726119 C29.3333333,8.13340252 27.8665975,6.66666667 26.0639967,6.66666667 L26.0639967,6.66666667 Z" id="Credit-card" fill="#1A1A1A"></path>
                        <rect id="Rectangle" x="0" y="0" width="32" height="32"></rect>
                    </g>
                </g>
            </g>
        </g>
    </g>
</svg>