<svg width="142" height="126" viewBox="0 0 142 126" fill="none" xmlns="http://www.w3.org/2000/svg">
<path d="M63.7919 9.90752C63.7919 9.90752 58.475 37.1384 27.9017 38.2142C-2.67157 39.2901 -11.0378 83.1309 19.9989 91.2739C51.0357 99.4169 35.7458 120.492 56.1746 124.76C79.3933 129.611 79.6814 95.4618 95.8271 94.9128C131.461 93.7013 149.902 77.4769 137.015 64.3173C114.393 41.2174 102.739 44.941 103.53 26.4807C104.321 8.02052 70.8465 -12.3382 63.7919 9.90752Z" fill="#E8E8E8"/>
<path d="M98.8522 29.5175L26.2766 44.4085C23.9643 44.883 22.4767 47.1311 22.9539 49.4299L32.3015 94.4595C32.7786 96.7582 35.04 98.2372 37.3522 97.7627L109.928 82.8716C112.24 82.3972 113.728 80.1491 113.251 77.8503L103.903 32.8207C103.426 30.5219 101.164 29.043 98.8522 29.5175Z" fill="#989898"/>
<path d="M96.7222 34.9238L88.3635 36.6389C86.9761 36.9235 86.0836 38.2724 86.3699 39.6518L88.0949 47.9618C88.3813 49.3411 89.7381 50.2285 91.1254 49.9438L99.4841 48.2288C100.871 47.9441 101.764 46.5952 101.478 45.2159L99.7527 36.9059C99.4663 35.5266 98.1095 34.6392 96.7222 34.9238Z" fill="white"/>
<path d="M63.2665 69.9994L35.0633 75.786C34.9709 75.8049 34.9113 75.8949 34.9304 75.9868L35.7837 80.0972C35.8028 80.1891 35.8933 80.2483 35.9858 80.2293L64.1889 74.4428C64.2814 74.4238 64.3409 74.3339 64.3218 74.242L63.4685 70.1316C63.4494 70.0396 63.3589 69.9805 63.2665 69.9994Z" fill="white"/>
<path d="M77.113 76.104L36.8445 84.366C36.752 84.385 36.6925 84.4749 36.7116 84.5669L37.5649 88.6773C37.5839 88.7692 37.6744 88.8284 37.7669 88.8094L78.0354 80.5474C78.1279 80.5284 78.1874 80.4385 78.1683 80.3465L77.315 76.2362C77.296 76.1442 77.2055 76.0851 77.113 76.104Z" fill="white"/>
<path d="M110.218 84.0807C114.441 84.0807 117.865 80.6768 117.865 76.4778C117.865 72.2789 114.441 68.875 110.218 68.875C105.994 68.875 102.571 72.2789 102.571 76.4778C102.571 80.6768 105.994 84.0807 110.218 84.0807Z" fill="white" stroke="white" stroke-width="15" stroke-miterlimit="10"/>
<path d="M113.164 75.841H110.986C110.969 75.841 110.953 75.8377 110.937 75.8314C110.922 75.825 110.908 75.8156 110.896 75.8038C110.884 75.7919 110.874 75.7779 110.868 75.7625C110.861 75.747 110.858 75.7304 110.858 75.7137V73.5488C110.858 73.38 110.791 73.218 110.671 73.0986C110.55 72.9792 110.388 72.9121 110.218 72.9121C110.048 72.9121 109.885 72.9792 109.765 73.0986C109.645 73.218 109.577 73.38 109.577 73.5488V75.7137C109.577 75.7304 109.574 75.747 109.568 75.7625C109.561 75.7779 109.552 75.7919 109.54 75.8038C109.528 75.8156 109.514 75.825 109.498 75.8314C109.483 75.8377 109.466 75.841 109.449 75.841H107.272C107.103 75.8426 106.942 75.9103 106.823 76.0296C106.704 76.1488 106.637 76.3099 106.637 76.4778C106.637 76.6457 106.704 76.8067 106.823 76.926C106.942 77.0452 107.103 77.113 107.272 77.1145H109.449C109.483 77.1145 109.516 77.1279 109.54 77.1518C109.564 77.1757 109.577 77.2081 109.577 77.2419V79.4068C109.577 79.5756 109.645 79.7376 109.765 79.857C109.885 79.9764 110.048 80.0435 110.218 80.0435C110.388 80.0435 110.551 79.9764 110.671 79.857C110.791 79.7376 110.858 79.5756 110.858 79.4068V77.2419C110.858 77.2081 110.872 77.1757 110.896 77.1518C110.92 77.1279 110.953 77.1145 110.986 77.1145H113.164C113.333 77.113 113.494 77.0452 113.613 76.926C113.732 76.8067 113.799 76.6457 113.799 76.4778C113.799 76.3099 113.732 76.1488 113.613 76.0296C113.494 75.9103 113.333 75.8426 113.164 75.841Z" fill="#858585"/>
</svg>
