<svg width="14" height="14" viewBox="0 0 14 14" fill="none" xmlns="http://www.w3.org/2000/svg">
<path fill-rule="evenodd" clip-rule="evenodd" d="M1.66663 7.0013C1.66663 4.05744 4.0561 1.66797 6.99996 1.66797C9.94382 1.66797 12.3333 4.05744 12.3333 7.0013C12.3333 9.94516 9.94382 12.3346 6.99996 12.3346C4.0561 12.3346 1.66663 9.94516 1.66663 7.0013ZM6.99996 0.667969C3.50382 0.667969 0.666626 3.50516 0.666626 7.0013C0.666626 10.4974 3.50382 13.3346 6.99996 13.3346C10.4961 13.3346 13.3333 10.4974 13.3333 7.0013C13.3333 3.50516 10.4961 0.667969 6.99996 0.667969ZM5.60351 9.10485L9.10351 5.60486C9.29877 5.40959 9.29877 5.09301 9.10351 4.89775C8.90825 4.70249 8.59167 4.70249 8.39641 4.89775L4.89641 8.39775C4.70114 8.59301 4.70114 8.90959 4.89641 9.10485C5.09167 9.30012 5.40825 9.30012 5.60351 9.10485ZM9.33329 8.7513C9.33329 9.07347 9.07213 9.33464 8.74996 9.33464C8.42779 9.33464 8.16663 9.07347 8.16663 8.7513C8.16663 8.42914 8.42779 8.16797 8.74996 8.16797C9.07213 8.16797 9.33329 8.42914 9.33329 8.7513ZM5.24996 5.83463C5.57212 5.83463 5.83329 5.57347 5.83329 5.2513C5.83329 4.92914 5.57212 4.66797 5.24996 4.66797C4.92779 4.66797 4.66663 4.92914 4.66663 5.2513C4.66663 5.57347 4.92779 5.83463 5.24996 5.83463Z" fill="white"/>
</svg>
