<svg xmlns="http://www.w3.org/2000/svg" width="94" height="48" viewBox="0 0 94 48">
    <g fill="none" fill-rule="evenodd">
        <g>
            <g>
                <path d="M0 0H94V48H0z" transform="translate(0 -1382) translate(0 1382)"/>
                <g>
                    <path d="M0 0H32V32H0z" transform="translate(0 -1382) translate(0 1382) translate(31 8)"/>
                    <path fill="#121212" d="M14.239 26.571L17.761 26.571 17.761 20.534 14.239 20.534z" transform="translate(0 -1382) translate(0 1382) translate(31 8)"/>
                    <path fill="#FDE61D" d="M24.44 24.37c0 1.242-1.072 2.252-2.39 2.252h-2.78v-6.843c0-.416-.337-.755-.754-.755h-5.032c-.417 0-.754.339-.754.755v6.843H9.472c-1.318 0-2.39-1.01-2.39-2.252V14.2l8.562-8.563c.198-.196.516-.196.712 0l8.084 8.086V24.37zM14.24 26.571h3.522v-6.037h-3.522v6.037zm3.184-22c-.76-.761-2.086-.761-2.846 0L2.888 16.26c-.295.295-.295.773 0 1.068.295.294.773.294 1.067 0l1.618-1.618v8.66c0 2.074 1.75 3.761 3.899 3.761H22.05c2.151 0 3.9-1.687 3.9-3.76v-9.139l2.095 2.096c.147.147.34.221.533.221s.386-.074.534-.221c.295-.295.295-.773 0-1.068L17.422 4.57z" transform="translate(0 -1382) translate(0 1382) translate(31 8)"/>
                </g>
            </g>
        </g>
    </g>
</svg>
