<svg width="21" height="26" viewBox="0 0 21 26" fill="none" xmlns="http://www.w3.org/2000/svg">
<path fill-rule="evenodd" clip-rule="evenodd" d="M19.4923 6.80952L20.9946 22.307L21 22.3738C21 24.3735 19.2348 26 17.0618 26H3.93817C1.7652 26 0 24.3735 0 22.3738C0 22.3627 0.00134134 22.3515 0.00268268 22.3404C0.00402402 22.3293 0.00536535 22.3181 0.00536535 22.307L1.50766 6.80952C1.53986 6.41961 1.85105 5.81905 2.22662 5.81905H5.31707C5.31828 5.73645 5.32129 5.65389 5.32606 5.57143C5.49048 2.72855 7.74695 0 10.5 0C13.3329 0 15.64 2.88914 15.6829 5.81905H18.7734C19.1436 5.81905 19.4601 6.41961 19.4923 6.80952ZM10.5 1.2381C12.5335 1.2381 14.1914 3.7191 14.2343 5.81905H6.76571C6.80864 3.7191 8.46653 1.2381 10.5 1.2381ZM3.93817 24.4961H17.0618C18.4193 24.4961 19.5299 23.5101 19.5514 22.2952L18.1081 7.16272H15.6829H14.2343H6.76035H5.3117H2.88656L1.44865 22.2952C1.47011 23.5101 2.57537 24.4961 3.93817 24.4961Z" fill="#7B7B7B"/>
</svg>
