<?xml version="1.0" encoding="UTF-8"?>
<svg width="28px" height="28px" viewBox="0 0 28 28" version="1.1" xmlns="http://www.w3.org/2000/svg" xmlns:xlink="http://www.w3.org/1999/xlink">
    <title>ic_card</title>
    <g id="Page-1" stroke="none" stroke-width="1" fill="none" fill-rule="evenodd">
        <g id="Profile" transform="translate(-26.000000, -802.000000)">
            <g id="Group-4-Copy-2" transform="translate(12.000000, 720.000000)">
                <g id="Suggestion_1-Copy" transform="translate(0.000000, 64.000000)">
                    <g id="ic_discovery" transform="translate(12.000000, 16.000000)">
                        <rect id="Rectangle" x="0" y="0" width="32" height="32"></rect>
                        <path d="M16,14.7421384 C16.6943396,14.7421384 17.2578616,15.3056604 17.2578616,16 C17.2578616,16.6943396 16.6943396,17.2578616 16,17.2578616 C15.3056604,17.2578616 14.7421384,16.6943396 14.7421384,16 C14.7421384,15.3056604 15.3056604,14.7421384 16,14.7421384 L16,14.7421384 Z M18.9609541,18.9609541 L10.0780919,21.9219081 L13.0390459,13.0390459 L21.9219081,10.0780919 L18.9609541,18.9609541 Z M22.8775029,8.16743126 L12.204193,11.7252012 C11.9773851,11.8008038 11.8012755,11.9769135 11.7256729,12.2037213 L8.16790296,22.8770312 C8.07806926,23.1483112 8.14922466,23.4471638 8.35112811,23.6490673 C8.55303155,23.8509707 8.85188423,23.9221261 9.12316419,23.8322924 L19.7964741,20.2745225 C19.9094333,20.2362764 20.0099403,20.173126 20.091769,20.0912973 C20.1735977,20.0094686 20.2367481,19.9089616 20.2749942,19.7960024 L23.8327641,9.12269249 C23.9225978,8.85141253 23.8514424,8.55255986 23.649539,8.35065641 C23.4476355,8.14875297 23.1487828,8.07759757 22.8775029,8.16743126 L22.8775029,8.16743126 Z M16,27.8238994 C9.47924528,27.8238994 4.17610063,22.5194969 4.17610063,16 C4.17610063,9.48050314 9.47924528,4.17610063 16,4.17610063 C22.5207547,4.17610063 27.8238994,9.48050314 27.8238994,16 C27.8238994,22.5194969 22.5207547,27.8238994 16,27.8238994 L16,27.8238994 Z M16,2.66666667 C8.64779874,2.66666667 2.66666667,8.64779874 2.66666667,16 C2.66666667,23.3522013 8.64779874,29.3333333 16,29.3333333 C23.3522013,29.3333333 29.3333333,23.3522013 29.3333333,16 C29.3333333,8.64779874 23.3522013,2.66666667 16,2.66666667 L16,2.66666667 Z" id="Discover" fill="#1A1A1A"></path>
                    </g>
                </g>
            </g>
        </g>
    </g>
</svg>