<svg width="14" height="13" viewBox="0 0 14 13" fill="none" xmlns="http://www.w3.org/2000/svg">
<path d="M9.04766 0.652344H4.95266C3.50016 0.652344 3.17933 1.37568 2.99266 2.26234L2.3335 5.41818H11.6668L11.0077 2.26234C10.821 1.37568 10.5002 0.652344 9.04766 0.652344Z" stroke="black" stroke-linecap="round" stroke-linejoin="round"/>
<path d="M12.8276 10.563C12.8918 11.2455 12.3434 11.8346 11.6434 11.8346H10.5468C9.91676 11.8346 9.82926 11.5663 9.71842 11.2338L9.60176 10.8838C9.43842 10.4055 9.33342 10.0846 8.49342 10.0846H5.50676C4.66676 10.0846 4.54426 10.4463 4.39842 10.8838L4.28176 11.2338C4.17092 11.5663 4.08342 11.8346 3.45342 11.8346H2.35676C1.65676 11.8346 1.10842 11.2455 1.17259 10.563L1.49926 7.01047C1.58092 6.13547 1.75009 5.41797 3.27842 5.41797H10.7218C12.2501 5.41797 12.4193 6.13547 12.5009 7.01047L12.8276 10.563Z" stroke="black" stroke-linecap="round" stroke-linejoin="round"/>
<path d="M2.33333 3.66797H1.75" stroke="black" stroke-linecap="round" stroke-linejoin="round"/>
<path d="M12.2501 3.66797H11.6667" stroke="black" stroke-linecap="round" stroke-linejoin="round"/>
<path d="M7 0.75V1.91667" stroke="black" stroke-linecap="round" stroke-linejoin="round"/>
<path d="M6.125 1.91797H7.875" stroke="black" stroke-linecap="round" stroke-linejoin="round"/>
<path d="M3.5 7.75H5.25" stroke="black" stroke-linecap="round" stroke-linejoin="round"/>
<path d="M8.75 7.75H10.5" stroke="black" stroke-linecap="round" stroke-linejoin="round"/>
</svg>
