<svg width="24" height="24" viewBox="0 0 24 24" fill="none" xmlns="http://www.w3.org/2000/svg">
<path d="M21 6.97656C17.67 6.64656 14.32 6.47656 10.98 6.47656C9 6.47656 7.02 6.57656 5.04 6.77656L3 6.97656" stroke="black" stroke-linecap="round" stroke-linejoin="round"/>
<path d="M8.5 5.97L8.72 4.66C8.88 3.71 9 3 10.69 3H13.31C15 3 15.13 3.75 15.28 4.67L15.5 5.97" stroke="black" stroke-linecap="round" stroke-linejoin="round"/>
<path d="M18.85 9.14062L18.2 19.2106C18.09 20.7806 18 22.0006 15.21 22.0006H8.79002C6.00002 22.0006 5.91002 20.7806 5.80002 19.2106L5.15002 9.14062" stroke="black" stroke-linecap="round" stroke-linejoin="round"/>
<path d="M10.33 16.5H13.66" stroke="black" stroke-linecap="round" stroke-linejoin="round"/>
<path d="M9.5 12.5H14.5" stroke="black" stroke-linecap="round" stroke-linejoin="round"/>
</svg>
