<svg width="28" height="28" viewBox="0 0 28 28" fill="none" xmlns="http://www.w3.org/2000/svg">
<path d="M11.6667 18.2838C11.6667 17.7316 12.1145 17.2838 12.6667 17.2838H15.3334C15.8857 17.2838 16.3334 17.7316 16.3334 18.2838V25.4505H11.6667V18.2838Z" fill="white"/>
<path d="M16.625 25.2172V19.9088C16.625 18.4591 15.4497 17.2838 14 17.2838C12.5503 17.2838 11.375 18.4591 11.375 19.9088V25.2172H16.625Z" stroke="#7B7B7B" stroke-linecap="round" stroke-linejoin="round"/>
<path d="M2.91675 12.134L5.01669 10.1839M5.01669 10.1839L12.6935 3.34454C13.4536 2.66739 14.601 2.66917 15.359 3.34868L22.9834 10.1839M5.01669 10.1839V23.4505C5.01669 24.5551 5.91212 25.4505 7.01669 25.4505H14H20.9834C22.0879 25.4505 22.9834 24.5551 22.9834 23.4505V10.1839M25.0834 12.134L22.9834 10.1839" stroke="#7B7B7B" stroke-linecap="round" stroke-linejoin="round"/>
</svg>
