<svg width="20" height="20" viewBox="0 0 20 20" fill="none" xmlns="http://www.w3.org/2000/svg">
<path d="M15.3417 15.0742L12.9917 17.4242" stroke="black" stroke-linecap="round" stroke-linejoin="round"/>
<path d="M15.3417 17.4242L12.9917 15.0742" stroke="black" stroke-linecap="round" stroke-linejoin="round"/>
<path d="M10.1331 9.05768C10.0498 9.04935 9.9498 9.04935 9.85814 9.05768C7.8748 8.99102 6.2998 7.36602 6.2998 5.36602C6.2998 3.32435 7.9498 1.66602 9.9998 1.66602C12.0415 1.66602 13.6998 3.32435 13.6998 5.36602C13.6915 7.36602 12.1165 8.99102 10.1331 9.05768Z" stroke="black" stroke-linecap="round" stroke-linejoin="round"/>
<path d="M10 18.1741C8.48333 18.1741 6.975 17.7908 5.825 17.0241C3.80833 15.6741 3.80833 13.4741 5.825 12.1324C8.11667 10.5991 11.875 10.5991 14.1667 12.1324" stroke="black" stroke-linecap="round" stroke-linejoin="round"/>
</svg>
