<svg width="20" height="20" viewBox="0 0 20 20" fill="none" xmlns="http://www.w3.org/2000/svg">
<path fill-rule="evenodd" clip-rule="evenodd" d="M4.81702 4.95833C4.77254 4.95833 4.72868 4.95862 4.68549 4.95915C4.73955 4.12875 4.90608 3.70544 5.16586 3.46105C5.48384 3.1619 6.07619 3 7.31702 3H15.1836C16.4457 3 17.037 3.16873 17.3512 3.47882C17.6631 3.78662 17.8337 4.36464 17.8337 5.60833V11.4333C17.8337 12.5548 17.6941 13.1384 17.4324 13.4686C17.2425 13.7082 16.9296 13.8826 16.3337 13.9728V10.5083V8.56671V8.56667C16.3337 8.0652 16.3097 7.60686 16.2393 7.1974C16.1356 6.59466 15.9311 6.09784 15.5536 5.72535C14.922 5.1021 13.9382 4.95833 12.6836 4.95833H4.81702ZM3.68022 5.01632C3.72959 4.03807 3.92354 3.25681 4.48065 2.7327C5.11268 2.1381 6.08284 2 7.31702 2H15.1836C16.4382 2 17.422 2.14377 18.0536 2.76702C18.6875 3.39255 18.8337 4.36869 18.8337 5.60833V11.4333C18.8337 12.5618 18.7107 13.4658 18.2161 14.0897C17.7791 14.6411 17.129 14.8851 16.3204 14.9837C16.2711 15.962 16.0771 16.7432 15.52 17.2673C14.888 17.8619 13.9178 18 12.6836 18H4.81702C3.56242 18 2.57867 17.8563 1.94706 17.233C1.31314 16.6075 1.16699 15.6314 1.16699 14.3917V10.5083V8.56671C1.16699 7.43819 1.28996 6.53429 1.78452 5.9103C2.22152 5.35894 2.87161 5.11496 3.68022 5.01632ZM15.2633 7.42749C15.1859 6.92748 15.0462 6.62956 14.8512 6.43719C14.537 6.12711 13.9457 5.95837 12.6836 5.95837H4.81702C4.59657 5.95837 4.39029 5.96618 4.1922 5.97442C3.24218 6.03106 2.80751 6.22952 2.56822 6.53144C2.30652 6.86163 2.16699 7.44522 2.16699 8.56671V10.0083H15.3337V8.56671V8.56667C15.3337 8.10028 15.3097 7.72751 15.2633 7.42749ZM15.3337 11.0083H2.16699V14.3917C2.16699 15.6354 2.33752 16.2134 2.64945 16.5212C2.96369 16.8313 3.55495 17 4.81702 17H12.6836C13.9245 17 14.5168 16.8381 14.8348 16.539C15.1439 16.2482 15.321 15.7041 15.3337 14.5224V11.0083ZM3.87533 14.8417C3.87533 14.5656 4.09918 14.3417 4.37533 14.3417H5.80863C6.08478 14.3417 6.30863 14.5656 6.30863 14.8417C6.30863 15.1179 6.08478 15.3417 5.80863 15.3417H4.37533C4.09918 15.3417 3.87533 15.1179 3.87533 14.8417ZM7.59188 14.3417C7.31574 14.3417 7.09188 14.5656 7.09188 14.8417C7.09188 15.1179 7.31574 15.3417 7.59188 15.3417H10.4585C10.7347 15.3417 10.9585 15.1179 10.9585 14.8417C10.9585 14.5656 10.7347 14.3417 10.4585 14.3417H7.59188Z" fill="black"/>
</svg>
