<svg width="24" height="24" viewBox="0 0 24 24" fill="none" xmlns="http://www.w3.org/2000/svg">
<path d="M20.528 16.2102L18.0108 13.6982C17.1117 12.8011 15.5834 13.16 15.2238 14.3262C14.9541 15.1337 14.0551 15.5822 13.246 15.4028C11.448 14.9542 9.02061 12.6217 8.57111 10.7377C8.3014 9.93026 8.84081 9.03313 9.64992 8.76403C10.8186 8.40518 11.1782 6.88007 10.2792 5.98294L7.76199 3.47099C7.04278 2.843 5.96397 2.843 5.33466 3.47099L3.62653 5.17553C1.9184 6.96978 3.80633 11.7245 8.0317 15.941C12.2571 20.1575 17.0218 22.1312 18.8199 20.3369L20.528 18.6324C21.1573 17.9147 21.1573 16.8382 20.528 16.2102Z" stroke="#1A1A18"/>
</svg>
