<svg width="25" height="24" viewBox="0 0 25 24" fill="none" xmlns="http://www.w3.org/2000/svg">
<path d="M17.8283 21.0718C16.9986 21.317 16.018 21.4301 14.8677 21.4301H9.21057C8.06029 21.4301 7.07971 21.317 6.25 21.0718C6.45743 18.6204 8.97486 16.6875 12.0391 16.6875C15.1034 16.6875 17.6209 18.6204 17.8283 21.0718Z" stroke="black" stroke-linecap="round" stroke-linejoin="round"/>
<path d="M14.8677 2.57031H9.2106C4.49631 2.57031 2.6106 4.45603 2.6106 9.17031V14.8275C2.6106 18.3915 3.68545 20.3432 6.25002 21.0692C6.45745 18.6177 8.97488 16.6849 12.0392 16.6849C15.1035 16.6849 17.6209 18.6177 17.8283 21.0692C20.3929 20.3432 21.4677 18.3915 21.4677 14.8275V9.17031C21.4677 4.45603 19.582 2.57031 14.8677 2.57031ZM12.0392 14.0449C10.1723 14.0449 8.66374 12.5269 8.66374 10.66C8.66374 8.79319 10.1723 7.2846 12.0392 7.2846C13.906 7.2846 15.4146 8.79319 15.4146 10.66C15.4146 12.5269 13.906 14.0449 12.0392 14.0449Z" fill="#FFEC00" stroke="black" stroke-linecap="round" stroke-linejoin="round"/>
<path d="M15.4146 10.6567C15.4146 12.5236 13.906 14.0415 12.0391 14.0415C10.1723 14.0415 8.6637 12.5236 8.6637 10.6567C8.6637 8.78984 10.1723 7.28125 12.0391 7.28125C13.906 7.28125 15.4146 8.78984 15.4146 10.6567Z" stroke="black" stroke-linecap="round" stroke-linejoin="round"/>
</svg>
