<?xml version="1.0" encoding="UTF-8"?>
<svg width="32px" height="19px" viewBox="0 0 32 19" version="1.1" xmlns="http://www.w3.org/2000/svg" xmlns:xlink="http://www.w3.org/1999/xlink">
    <title>ic_card</title>
    <g id="Page-1" stroke="none" stroke-width="1" fill="none" fill-rule="evenodd">
        <g id="Profile" transform="translate(-24.000000, -744.000000)">
            <g id="Group-4-Copy-2" transform="translate(12.000000, 720.000000)">
                <g id="ic_scooter" transform="translate(12.000000, 16.000000)">
                    <rect id="Rectangle" x="0" y="0" width="32" height="32"></rect>
                    <path d="M30.3461356,20.4032932 C30.3461356,20.7812406 30.0495711,21.0778051 29.6716238,21.0778051 L28.859175,21.0778051 C28.4812276,18.9218501 26.6080435,17.2735032 24.3444976,17.2735032 C22.0837105,17.2735032 20.2091469,18.9218501 19.832579,21.0778051 L12.167421,21.0778051 C11.7922324,18.9218501 9.9162895,17.2735032 7.65412302,17.2735032 C5.39195655,17.2735032 3.51739299,18.9218501 3.14082504,21.0778051 L2.32837622,21.0778051 C1.9504289,21.0778051 1.65386439,20.7812406 1.65386439,20.4032932 L1.65386439,18.0514677 C1.65386439,17.1728092 2.19043924,16.3658778 3.00702616,16.0348291 L3.55601535,15.7975775 C3.79050821,15.7010216 4.01672486,15.5837752 4.24156214,15.4651494 L26.4507953,15.4651494 L27.7308505,15.8541316 C29.2702272,16.321738 30.3461356,17.7755938 30.3461356,19.3866977 L30.3461356,20.4032932 Z M24.3444976,24.8048623 C22.7264968,24.8048623 21.4078193,23.4861847 21.4078193,21.868184 C21.4078193,20.2474245 22.7264968,18.9287469 24.3444976,18.9287469 C25.9652571,18.9287469 27.2839347,20.2474245 27.2839347,21.868184 C27.2839347,23.4861847 25.9652571,24.8048623 24.3444976,24.8048623 L24.3444976,24.8048623 Z M7.65412302,24.8048623 C6.03474288,24.8048623 4.71744472,23.4861847 4.71744472,21.868184 C4.71744472,20.2474245 6.03474288,18.9287469 7.65412302,18.9287469 C9.27488254,18.9287469 10.5935601,20.2474245 10.5935601,21.868184 C10.5935601,23.4861847 9.27488254,24.8048623 7.65412302,24.8048623 L7.65412302,24.8048623 Z M6.62511315,13.6030001 L8.07621018,11.9394802 C9.36730031,10.4883831 11.2032415,9.65386439 13.1178068,9.65386439 L13.5509289,9.65386439 L13.5509289,13.811285 L6.41682831,13.811285 C6.4857968,13.7395577 6.56028277,13.6774861 6.62511315,13.6030001 L6.62511315,13.6030001 Z M15.207552,9.65386439 L15.3316953,9.65386439 C17.0490107,9.65386439 18.6849433,10.3076857 19.9360317,11.4898056 L22.1250916,13.572654 C22.2230269,13.6636924 22.3416527,13.7271434 22.4464848,13.811285 L15.207552,13.811285 L15.207552,9.65386439 Z M28.2122505,14.2706151 L24.7183068,13.207121 C24.1789732,13.0471141 23.6741239,12.7560671 23.2603129,12.3698435 L21.0740118,10.2897539 C19.5125652,8.81244881 17.4738566,8 15.3316953,8 L13.1178068,8 C10.7301177,8 8.44312255,9.03452735 6.83477736,10.8456399 L5.38230096,12.5077805 C4.69813354,13.2760895 3.84706237,13.8843916 2.91184965,14.2733739 L2.36699858,14.5092461 C0.929695245,15.0913401 0,16.4817449 0,18.0514677 L0,20.4032932 C0,21.6888659 1.04556231,22.7316695 2.32837622,22.7316695 L3.14772188,22.7316695 C3.55463598,24.8517609 5.41816458,26.460106 7.65412302,26.460106 C9.89146084,26.460106 11.7536101,24.8517609 12.1605242,22.7316695 L19.8408552,22.7316695 C20.2463899,24.8517609 22.1085392,26.460106 24.3444976,26.460106 C26.5818354,26.460106 28.445364,24.8517609 28.8508987,22.7316695 L29.6716238,22.7316695 C30.9558171,22.7316695 32,21.6888659 32,20.4032932 L32,19.3866977 C32,17.0514246 30.4426915,14.9492651 28.2122505,14.2706151 L28.2122505,14.2706151 Z" id="Car" fill="#1A1A1A"></path>
                </g>
            </g>
        </g>
    </g>
</svg>